%TF.GenerationSoftware,KiCad,Pcbnew,7.0.2*%
%TF.CreationDate,2023-09-28T02:32:06+09:00*%
%TF.ProjectId,HT-Keys-TK_PCB,48542d4b-6579-4732-9d54-4b5f5043422e,rev?*%
%TF.SameCoordinates,Original*%
%TF.FileFunction,Legend,Bot*%
%TF.FilePolarity,Positive*%
%FSLAX46Y46*%
G04 Gerber Fmt 4.6, Leading zero omitted, Abs format (unit mm)*
G04 Created by KiCad (PCBNEW 7.0.2) date 2023-09-28 02:32:06*
%MOMM*%
%LPD*%
G01*
G04 APERTURE LIST*
%ADD10C,0.150000*%
%ADD11C,0.120000*%
G04 APERTURE END LIST*
D10*
%TO.C,D17*%
X72462619Y-154915714D02*
X71462619Y-154915714D01*
X71462619Y-154915714D02*
X71462619Y-155153809D01*
X71462619Y-155153809D02*
X71510238Y-155296666D01*
X71510238Y-155296666D02*
X71605476Y-155391904D01*
X71605476Y-155391904D02*
X71700714Y-155439523D01*
X71700714Y-155439523D02*
X71891190Y-155487142D01*
X71891190Y-155487142D02*
X72034047Y-155487142D01*
X72034047Y-155487142D02*
X72224523Y-155439523D01*
X72224523Y-155439523D02*
X72319761Y-155391904D01*
X72319761Y-155391904D02*
X72415000Y-155296666D01*
X72415000Y-155296666D02*
X72462619Y-155153809D01*
X72462619Y-155153809D02*
X72462619Y-154915714D01*
X72462619Y-156439523D02*
X72462619Y-155868095D01*
X72462619Y-156153809D02*
X71462619Y-156153809D01*
X71462619Y-156153809D02*
X71605476Y-156058571D01*
X71605476Y-156058571D02*
X71700714Y-155963333D01*
X71700714Y-155963333D02*
X71748333Y-155868095D01*
X71462619Y-156772857D02*
X71462619Y-157439523D01*
X71462619Y-157439523D02*
X72462619Y-157010952D01*
X74362619Y-159678095D02*
X73362619Y-159678095D01*
X74362619Y-160249523D02*
X73791190Y-159820952D01*
X73362619Y-160249523D02*
X73934047Y-159678095D01*
%TO.C,D21*%
X72462619Y-173955714D02*
X71462619Y-173955714D01*
X71462619Y-173955714D02*
X71462619Y-174193809D01*
X71462619Y-174193809D02*
X71510238Y-174336666D01*
X71510238Y-174336666D02*
X71605476Y-174431904D01*
X71605476Y-174431904D02*
X71700714Y-174479523D01*
X71700714Y-174479523D02*
X71891190Y-174527142D01*
X71891190Y-174527142D02*
X72034047Y-174527142D01*
X72034047Y-174527142D02*
X72224523Y-174479523D01*
X72224523Y-174479523D02*
X72319761Y-174431904D01*
X72319761Y-174431904D02*
X72415000Y-174336666D01*
X72415000Y-174336666D02*
X72462619Y-174193809D01*
X72462619Y-174193809D02*
X72462619Y-173955714D01*
X71557857Y-174908095D02*
X71510238Y-174955714D01*
X71510238Y-174955714D02*
X71462619Y-175050952D01*
X71462619Y-175050952D02*
X71462619Y-175289047D01*
X71462619Y-175289047D02*
X71510238Y-175384285D01*
X71510238Y-175384285D02*
X71557857Y-175431904D01*
X71557857Y-175431904D02*
X71653095Y-175479523D01*
X71653095Y-175479523D02*
X71748333Y-175479523D01*
X71748333Y-175479523D02*
X71891190Y-175431904D01*
X71891190Y-175431904D02*
X72462619Y-174860476D01*
X72462619Y-174860476D02*
X72462619Y-175479523D01*
X72462619Y-176431904D02*
X72462619Y-175860476D01*
X72462619Y-176146190D02*
X71462619Y-176146190D01*
X71462619Y-176146190D02*
X71605476Y-176050952D01*
X71605476Y-176050952D02*
X71700714Y-175955714D01*
X71700714Y-175955714D02*
X71748333Y-175860476D01*
X74362619Y-178718095D02*
X73362619Y-178718095D01*
X74362619Y-179289523D02*
X73791190Y-178860952D01*
X73362619Y-179289523D02*
X73934047Y-178718095D01*
%TO.C,D18*%
X91622619Y-154915714D02*
X90622619Y-154915714D01*
X90622619Y-154915714D02*
X90622619Y-155153809D01*
X90622619Y-155153809D02*
X90670238Y-155296666D01*
X90670238Y-155296666D02*
X90765476Y-155391904D01*
X90765476Y-155391904D02*
X90860714Y-155439523D01*
X90860714Y-155439523D02*
X91051190Y-155487142D01*
X91051190Y-155487142D02*
X91194047Y-155487142D01*
X91194047Y-155487142D02*
X91384523Y-155439523D01*
X91384523Y-155439523D02*
X91479761Y-155391904D01*
X91479761Y-155391904D02*
X91575000Y-155296666D01*
X91575000Y-155296666D02*
X91622619Y-155153809D01*
X91622619Y-155153809D02*
X91622619Y-154915714D01*
X91622619Y-156439523D02*
X91622619Y-155868095D01*
X91622619Y-156153809D02*
X90622619Y-156153809D01*
X90622619Y-156153809D02*
X90765476Y-156058571D01*
X90765476Y-156058571D02*
X90860714Y-155963333D01*
X90860714Y-155963333D02*
X90908333Y-155868095D01*
X91051190Y-157010952D02*
X91003571Y-156915714D01*
X91003571Y-156915714D02*
X90955952Y-156868095D01*
X90955952Y-156868095D02*
X90860714Y-156820476D01*
X90860714Y-156820476D02*
X90813095Y-156820476D01*
X90813095Y-156820476D02*
X90717857Y-156868095D01*
X90717857Y-156868095D02*
X90670238Y-156915714D01*
X90670238Y-156915714D02*
X90622619Y-157010952D01*
X90622619Y-157010952D02*
X90622619Y-157201428D01*
X90622619Y-157201428D02*
X90670238Y-157296666D01*
X90670238Y-157296666D02*
X90717857Y-157344285D01*
X90717857Y-157344285D02*
X90813095Y-157391904D01*
X90813095Y-157391904D02*
X90860714Y-157391904D01*
X90860714Y-157391904D02*
X90955952Y-157344285D01*
X90955952Y-157344285D02*
X91003571Y-157296666D01*
X91003571Y-157296666D02*
X91051190Y-157201428D01*
X91051190Y-157201428D02*
X91051190Y-157010952D01*
X91051190Y-157010952D02*
X91098809Y-156915714D01*
X91098809Y-156915714D02*
X91146428Y-156868095D01*
X91146428Y-156868095D02*
X91241666Y-156820476D01*
X91241666Y-156820476D02*
X91432142Y-156820476D01*
X91432142Y-156820476D02*
X91527380Y-156868095D01*
X91527380Y-156868095D02*
X91575000Y-156915714D01*
X91575000Y-156915714D02*
X91622619Y-157010952D01*
X91622619Y-157010952D02*
X91622619Y-157201428D01*
X91622619Y-157201428D02*
X91575000Y-157296666D01*
X91575000Y-157296666D02*
X91527380Y-157344285D01*
X91527380Y-157344285D02*
X91432142Y-157391904D01*
X91432142Y-157391904D02*
X91241666Y-157391904D01*
X91241666Y-157391904D02*
X91146428Y-157344285D01*
X91146428Y-157344285D02*
X91098809Y-157296666D01*
X91098809Y-157296666D02*
X91051190Y-157201428D01*
X93522619Y-159678095D02*
X92522619Y-159678095D01*
X93522619Y-160249523D02*
X92951190Y-159820952D01*
X92522619Y-160249523D02*
X93094047Y-159678095D01*
%TO.C,D1*%
X72462619Y-69191905D02*
X71462619Y-69191905D01*
X71462619Y-69191905D02*
X71462619Y-69430000D01*
X71462619Y-69430000D02*
X71510238Y-69572857D01*
X71510238Y-69572857D02*
X71605476Y-69668095D01*
X71605476Y-69668095D02*
X71700714Y-69715714D01*
X71700714Y-69715714D02*
X71891190Y-69763333D01*
X71891190Y-69763333D02*
X72034047Y-69763333D01*
X72034047Y-69763333D02*
X72224523Y-69715714D01*
X72224523Y-69715714D02*
X72319761Y-69668095D01*
X72319761Y-69668095D02*
X72415000Y-69572857D01*
X72415000Y-69572857D02*
X72462619Y-69430000D01*
X72462619Y-69430000D02*
X72462619Y-69191905D01*
X72462619Y-70715714D02*
X72462619Y-70144286D01*
X72462619Y-70430000D02*
X71462619Y-70430000D01*
X71462619Y-70430000D02*
X71605476Y-70334762D01*
X71605476Y-70334762D02*
X71700714Y-70239524D01*
X71700714Y-70239524D02*
X71748333Y-70144286D01*
X74362619Y-73478095D02*
X73362619Y-73478095D01*
X74362619Y-74049523D02*
X73791190Y-73620952D01*
X73362619Y-74049523D02*
X73934047Y-73478095D01*
%TO.C,D15*%
X110662619Y-135875714D02*
X109662619Y-135875714D01*
X109662619Y-135875714D02*
X109662619Y-136113809D01*
X109662619Y-136113809D02*
X109710238Y-136256666D01*
X109710238Y-136256666D02*
X109805476Y-136351904D01*
X109805476Y-136351904D02*
X109900714Y-136399523D01*
X109900714Y-136399523D02*
X110091190Y-136447142D01*
X110091190Y-136447142D02*
X110234047Y-136447142D01*
X110234047Y-136447142D02*
X110424523Y-136399523D01*
X110424523Y-136399523D02*
X110519761Y-136351904D01*
X110519761Y-136351904D02*
X110615000Y-136256666D01*
X110615000Y-136256666D02*
X110662619Y-136113809D01*
X110662619Y-136113809D02*
X110662619Y-135875714D01*
X110662619Y-137399523D02*
X110662619Y-136828095D01*
X110662619Y-137113809D02*
X109662619Y-137113809D01*
X109662619Y-137113809D02*
X109805476Y-137018571D01*
X109805476Y-137018571D02*
X109900714Y-136923333D01*
X109900714Y-136923333D02*
X109948333Y-136828095D01*
X109662619Y-138304285D02*
X109662619Y-137828095D01*
X109662619Y-137828095D02*
X110138809Y-137780476D01*
X110138809Y-137780476D02*
X110091190Y-137828095D01*
X110091190Y-137828095D02*
X110043571Y-137923333D01*
X110043571Y-137923333D02*
X110043571Y-138161428D01*
X110043571Y-138161428D02*
X110091190Y-138256666D01*
X110091190Y-138256666D02*
X110138809Y-138304285D01*
X110138809Y-138304285D02*
X110234047Y-138351904D01*
X110234047Y-138351904D02*
X110472142Y-138351904D01*
X110472142Y-138351904D02*
X110567380Y-138304285D01*
X110567380Y-138304285D02*
X110615000Y-138256666D01*
X110615000Y-138256666D02*
X110662619Y-138161428D01*
X110662619Y-138161428D02*
X110662619Y-137923333D01*
X110662619Y-137923333D02*
X110615000Y-137828095D01*
X110615000Y-137828095D02*
X110567380Y-137780476D01*
X112562619Y-140638095D02*
X111562619Y-140638095D01*
X112562619Y-141209523D02*
X111991190Y-140780952D01*
X111562619Y-141209523D02*
X112134047Y-140638095D01*
%TO.C,D2*%
X91622619Y-69191905D02*
X90622619Y-69191905D01*
X90622619Y-69191905D02*
X90622619Y-69430000D01*
X90622619Y-69430000D02*
X90670238Y-69572857D01*
X90670238Y-69572857D02*
X90765476Y-69668095D01*
X90765476Y-69668095D02*
X90860714Y-69715714D01*
X90860714Y-69715714D02*
X91051190Y-69763333D01*
X91051190Y-69763333D02*
X91194047Y-69763333D01*
X91194047Y-69763333D02*
X91384523Y-69715714D01*
X91384523Y-69715714D02*
X91479761Y-69668095D01*
X91479761Y-69668095D02*
X91575000Y-69572857D01*
X91575000Y-69572857D02*
X91622619Y-69430000D01*
X91622619Y-69430000D02*
X91622619Y-69191905D01*
X90717857Y-70144286D02*
X90670238Y-70191905D01*
X90670238Y-70191905D02*
X90622619Y-70287143D01*
X90622619Y-70287143D02*
X90622619Y-70525238D01*
X90622619Y-70525238D02*
X90670238Y-70620476D01*
X90670238Y-70620476D02*
X90717857Y-70668095D01*
X90717857Y-70668095D02*
X90813095Y-70715714D01*
X90813095Y-70715714D02*
X90908333Y-70715714D01*
X90908333Y-70715714D02*
X91051190Y-70668095D01*
X91051190Y-70668095D02*
X91622619Y-70096667D01*
X91622619Y-70096667D02*
X91622619Y-70715714D01*
X93522619Y-73478095D02*
X92522619Y-73478095D01*
X93522619Y-74049523D02*
X92951190Y-73620952D01*
X92522619Y-74049523D02*
X93094047Y-73478095D01*
%TO.C,D13*%
X72462619Y-135875714D02*
X71462619Y-135875714D01*
X71462619Y-135875714D02*
X71462619Y-136113809D01*
X71462619Y-136113809D02*
X71510238Y-136256666D01*
X71510238Y-136256666D02*
X71605476Y-136351904D01*
X71605476Y-136351904D02*
X71700714Y-136399523D01*
X71700714Y-136399523D02*
X71891190Y-136447142D01*
X71891190Y-136447142D02*
X72034047Y-136447142D01*
X72034047Y-136447142D02*
X72224523Y-136399523D01*
X72224523Y-136399523D02*
X72319761Y-136351904D01*
X72319761Y-136351904D02*
X72415000Y-136256666D01*
X72415000Y-136256666D02*
X72462619Y-136113809D01*
X72462619Y-136113809D02*
X72462619Y-135875714D01*
X72462619Y-137399523D02*
X72462619Y-136828095D01*
X72462619Y-137113809D02*
X71462619Y-137113809D01*
X71462619Y-137113809D02*
X71605476Y-137018571D01*
X71605476Y-137018571D02*
X71700714Y-136923333D01*
X71700714Y-136923333D02*
X71748333Y-136828095D01*
X71462619Y-137732857D02*
X71462619Y-138351904D01*
X71462619Y-138351904D02*
X71843571Y-138018571D01*
X71843571Y-138018571D02*
X71843571Y-138161428D01*
X71843571Y-138161428D02*
X71891190Y-138256666D01*
X71891190Y-138256666D02*
X71938809Y-138304285D01*
X71938809Y-138304285D02*
X72034047Y-138351904D01*
X72034047Y-138351904D02*
X72272142Y-138351904D01*
X72272142Y-138351904D02*
X72367380Y-138304285D01*
X72367380Y-138304285D02*
X72415000Y-138256666D01*
X72415000Y-138256666D02*
X72462619Y-138161428D01*
X72462619Y-138161428D02*
X72462619Y-137875714D01*
X72462619Y-137875714D02*
X72415000Y-137780476D01*
X72415000Y-137780476D02*
X72367380Y-137732857D01*
X74362619Y-140638095D02*
X73362619Y-140638095D01*
X74362619Y-141209523D02*
X73791190Y-140780952D01*
X73362619Y-141209523D02*
X73934047Y-140638095D01*
%TO.C,D8*%
X129702619Y-98271905D02*
X128702619Y-98271905D01*
X128702619Y-98271905D02*
X128702619Y-98510000D01*
X128702619Y-98510000D02*
X128750238Y-98652857D01*
X128750238Y-98652857D02*
X128845476Y-98748095D01*
X128845476Y-98748095D02*
X128940714Y-98795714D01*
X128940714Y-98795714D02*
X129131190Y-98843333D01*
X129131190Y-98843333D02*
X129274047Y-98843333D01*
X129274047Y-98843333D02*
X129464523Y-98795714D01*
X129464523Y-98795714D02*
X129559761Y-98748095D01*
X129559761Y-98748095D02*
X129655000Y-98652857D01*
X129655000Y-98652857D02*
X129702619Y-98510000D01*
X129702619Y-98510000D02*
X129702619Y-98271905D01*
X129131190Y-99414762D02*
X129083571Y-99319524D01*
X129083571Y-99319524D02*
X129035952Y-99271905D01*
X129035952Y-99271905D02*
X128940714Y-99224286D01*
X128940714Y-99224286D02*
X128893095Y-99224286D01*
X128893095Y-99224286D02*
X128797857Y-99271905D01*
X128797857Y-99271905D02*
X128750238Y-99319524D01*
X128750238Y-99319524D02*
X128702619Y-99414762D01*
X128702619Y-99414762D02*
X128702619Y-99605238D01*
X128702619Y-99605238D02*
X128750238Y-99700476D01*
X128750238Y-99700476D02*
X128797857Y-99748095D01*
X128797857Y-99748095D02*
X128893095Y-99795714D01*
X128893095Y-99795714D02*
X128940714Y-99795714D01*
X128940714Y-99795714D02*
X129035952Y-99748095D01*
X129035952Y-99748095D02*
X129083571Y-99700476D01*
X129083571Y-99700476D02*
X129131190Y-99605238D01*
X129131190Y-99605238D02*
X129131190Y-99414762D01*
X129131190Y-99414762D02*
X129178809Y-99319524D01*
X129178809Y-99319524D02*
X129226428Y-99271905D01*
X129226428Y-99271905D02*
X129321666Y-99224286D01*
X129321666Y-99224286D02*
X129512142Y-99224286D01*
X129512142Y-99224286D02*
X129607380Y-99271905D01*
X129607380Y-99271905D02*
X129655000Y-99319524D01*
X129655000Y-99319524D02*
X129702619Y-99414762D01*
X129702619Y-99414762D02*
X129702619Y-99605238D01*
X129702619Y-99605238D02*
X129655000Y-99700476D01*
X129655000Y-99700476D02*
X129607380Y-99748095D01*
X129607380Y-99748095D02*
X129512142Y-99795714D01*
X129512142Y-99795714D02*
X129321666Y-99795714D01*
X129321666Y-99795714D02*
X129226428Y-99748095D01*
X129226428Y-99748095D02*
X129178809Y-99700476D01*
X129178809Y-99700476D02*
X129131190Y-99605238D01*
X131602619Y-102558095D02*
X130602619Y-102558095D01*
X131602619Y-103129523D02*
X131031190Y-102700952D01*
X130602619Y-103129523D02*
X131174047Y-102558095D01*
%TO.C,D5*%
X72462619Y-98271905D02*
X71462619Y-98271905D01*
X71462619Y-98271905D02*
X71462619Y-98510000D01*
X71462619Y-98510000D02*
X71510238Y-98652857D01*
X71510238Y-98652857D02*
X71605476Y-98748095D01*
X71605476Y-98748095D02*
X71700714Y-98795714D01*
X71700714Y-98795714D02*
X71891190Y-98843333D01*
X71891190Y-98843333D02*
X72034047Y-98843333D01*
X72034047Y-98843333D02*
X72224523Y-98795714D01*
X72224523Y-98795714D02*
X72319761Y-98748095D01*
X72319761Y-98748095D02*
X72415000Y-98652857D01*
X72415000Y-98652857D02*
X72462619Y-98510000D01*
X72462619Y-98510000D02*
X72462619Y-98271905D01*
X71462619Y-99748095D02*
X71462619Y-99271905D01*
X71462619Y-99271905D02*
X71938809Y-99224286D01*
X71938809Y-99224286D02*
X71891190Y-99271905D01*
X71891190Y-99271905D02*
X71843571Y-99367143D01*
X71843571Y-99367143D02*
X71843571Y-99605238D01*
X71843571Y-99605238D02*
X71891190Y-99700476D01*
X71891190Y-99700476D02*
X71938809Y-99748095D01*
X71938809Y-99748095D02*
X72034047Y-99795714D01*
X72034047Y-99795714D02*
X72272142Y-99795714D01*
X72272142Y-99795714D02*
X72367380Y-99748095D01*
X72367380Y-99748095D02*
X72415000Y-99700476D01*
X72415000Y-99700476D02*
X72462619Y-99605238D01*
X72462619Y-99605238D02*
X72462619Y-99367143D01*
X72462619Y-99367143D02*
X72415000Y-99271905D01*
X72415000Y-99271905D02*
X72367380Y-99224286D01*
X74362619Y-102558095D02*
X73362619Y-102558095D01*
X74362619Y-103129523D02*
X73791190Y-102700952D01*
X73362619Y-103129523D02*
X73934047Y-102558095D01*
%TO.C,D7*%
X110662619Y-98271905D02*
X109662619Y-98271905D01*
X109662619Y-98271905D02*
X109662619Y-98510000D01*
X109662619Y-98510000D02*
X109710238Y-98652857D01*
X109710238Y-98652857D02*
X109805476Y-98748095D01*
X109805476Y-98748095D02*
X109900714Y-98795714D01*
X109900714Y-98795714D02*
X110091190Y-98843333D01*
X110091190Y-98843333D02*
X110234047Y-98843333D01*
X110234047Y-98843333D02*
X110424523Y-98795714D01*
X110424523Y-98795714D02*
X110519761Y-98748095D01*
X110519761Y-98748095D02*
X110615000Y-98652857D01*
X110615000Y-98652857D02*
X110662619Y-98510000D01*
X110662619Y-98510000D02*
X110662619Y-98271905D01*
X109662619Y-99176667D02*
X109662619Y-99843333D01*
X109662619Y-99843333D02*
X110662619Y-99414762D01*
X112562619Y-102558095D02*
X111562619Y-102558095D01*
X112562619Y-103129523D02*
X111991190Y-102700952D01*
X111562619Y-103129523D02*
X112134047Y-102558095D01*
%TO.C,D12*%
X129702619Y-116835714D02*
X128702619Y-116835714D01*
X128702619Y-116835714D02*
X128702619Y-117073809D01*
X128702619Y-117073809D02*
X128750238Y-117216666D01*
X128750238Y-117216666D02*
X128845476Y-117311904D01*
X128845476Y-117311904D02*
X128940714Y-117359523D01*
X128940714Y-117359523D02*
X129131190Y-117407142D01*
X129131190Y-117407142D02*
X129274047Y-117407142D01*
X129274047Y-117407142D02*
X129464523Y-117359523D01*
X129464523Y-117359523D02*
X129559761Y-117311904D01*
X129559761Y-117311904D02*
X129655000Y-117216666D01*
X129655000Y-117216666D02*
X129702619Y-117073809D01*
X129702619Y-117073809D02*
X129702619Y-116835714D01*
X129702619Y-118359523D02*
X129702619Y-117788095D01*
X129702619Y-118073809D02*
X128702619Y-118073809D01*
X128702619Y-118073809D02*
X128845476Y-117978571D01*
X128845476Y-117978571D02*
X128940714Y-117883333D01*
X128940714Y-117883333D02*
X128988333Y-117788095D01*
X128797857Y-118740476D02*
X128750238Y-118788095D01*
X128750238Y-118788095D02*
X128702619Y-118883333D01*
X128702619Y-118883333D02*
X128702619Y-119121428D01*
X128702619Y-119121428D02*
X128750238Y-119216666D01*
X128750238Y-119216666D02*
X128797857Y-119264285D01*
X128797857Y-119264285D02*
X128893095Y-119311904D01*
X128893095Y-119311904D02*
X128988333Y-119311904D01*
X128988333Y-119311904D02*
X129131190Y-119264285D01*
X129131190Y-119264285D02*
X129702619Y-118692857D01*
X129702619Y-118692857D02*
X129702619Y-119311904D01*
X131602619Y-121598095D02*
X130602619Y-121598095D01*
X131602619Y-122169523D02*
X131031190Y-121740952D01*
X130602619Y-122169523D02*
X131174047Y-121598095D01*
%TO.C,D11*%
X110662619Y-116835714D02*
X109662619Y-116835714D01*
X109662619Y-116835714D02*
X109662619Y-117073809D01*
X109662619Y-117073809D02*
X109710238Y-117216666D01*
X109710238Y-117216666D02*
X109805476Y-117311904D01*
X109805476Y-117311904D02*
X109900714Y-117359523D01*
X109900714Y-117359523D02*
X110091190Y-117407142D01*
X110091190Y-117407142D02*
X110234047Y-117407142D01*
X110234047Y-117407142D02*
X110424523Y-117359523D01*
X110424523Y-117359523D02*
X110519761Y-117311904D01*
X110519761Y-117311904D02*
X110615000Y-117216666D01*
X110615000Y-117216666D02*
X110662619Y-117073809D01*
X110662619Y-117073809D02*
X110662619Y-116835714D01*
X110662619Y-118359523D02*
X110662619Y-117788095D01*
X110662619Y-118073809D02*
X109662619Y-118073809D01*
X109662619Y-118073809D02*
X109805476Y-117978571D01*
X109805476Y-117978571D02*
X109900714Y-117883333D01*
X109900714Y-117883333D02*
X109948333Y-117788095D01*
X110662619Y-119311904D02*
X110662619Y-118740476D01*
X110662619Y-119026190D02*
X109662619Y-119026190D01*
X109662619Y-119026190D02*
X109805476Y-118930952D01*
X109805476Y-118930952D02*
X109900714Y-118835714D01*
X109900714Y-118835714D02*
X109948333Y-118740476D01*
X112562619Y-121598095D02*
X111562619Y-121598095D01*
X112562619Y-122169523D02*
X111991190Y-121740952D01*
X111562619Y-122169523D02*
X112134047Y-121598095D01*
%TO.C,D22*%
X91622619Y-173955714D02*
X90622619Y-173955714D01*
X90622619Y-173955714D02*
X90622619Y-174193809D01*
X90622619Y-174193809D02*
X90670238Y-174336666D01*
X90670238Y-174336666D02*
X90765476Y-174431904D01*
X90765476Y-174431904D02*
X90860714Y-174479523D01*
X90860714Y-174479523D02*
X91051190Y-174527142D01*
X91051190Y-174527142D02*
X91194047Y-174527142D01*
X91194047Y-174527142D02*
X91384523Y-174479523D01*
X91384523Y-174479523D02*
X91479761Y-174431904D01*
X91479761Y-174431904D02*
X91575000Y-174336666D01*
X91575000Y-174336666D02*
X91622619Y-174193809D01*
X91622619Y-174193809D02*
X91622619Y-173955714D01*
X90717857Y-174908095D02*
X90670238Y-174955714D01*
X90670238Y-174955714D02*
X90622619Y-175050952D01*
X90622619Y-175050952D02*
X90622619Y-175289047D01*
X90622619Y-175289047D02*
X90670238Y-175384285D01*
X90670238Y-175384285D02*
X90717857Y-175431904D01*
X90717857Y-175431904D02*
X90813095Y-175479523D01*
X90813095Y-175479523D02*
X90908333Y-175479523D01*
X90908333Y-175479523D02*
X91051190Y-175431904D01*
X91051190Y-175431904D02*
X91622619Y-174860476D01*
X91622619Y-174860476D02*
X91622619Y-175479523D01*
X90717857Y-175860476D02*
X90670238Y-175908095D01*
X90670238Y-175908095D02*
X90622619Y-176003333D01*
X90622619Y-176003333D02*
X90622619Y-176241428D01*
X90622619Y-176241428D02*
X90670238Y-176336666D01*
X90670238Y-176336666D02*
X90717857Y-176384285D01*
X90717857Y-176384285D02*
X90813095Y-176431904D01*
X90813095Y-176431904D02*
X90908333Y-176431904D01*
X90908333Y-176431904D02*
X91051190Y-176384285D01*
X91051190Y-176384285D02*
X91622619Y-175812857D01*
X91622619Y-175812857D02*
X91622619Y-176431904D01*
X93522619Y-178718095D02*
X92522619Y-178718095D01*
X93522619Y-179289523D02*
X92951190Y-178860952D01*
X92522619Y-179289523D02*
X93094047Y-178718095D01*
%TO.C,D16*%
X129702619Y-135875714D02*
X128702619Y-135875714D01*
X128702619Y-135875714D02*
X128702619Y-136113809D01*
X128702619Y-136113809D02*
X128750238Y-136256666D01*
X128750238Y-136256666D02*
X128845476Y-136351904D01*
X128845476Y-136351904D02*
X128940714Y-136399523D01*
X128940714Y-136399523D02*
X129131190Y-136447142D01*
X129131190Y-136447142D02*
X129274047Y-136447142D01*
X129274047Y-136447142D02*
X129464523Y-136399523D01*
X129464523Y-136399523D02*
X129559761Y-136351904D01*
X129559761Y-136351904D02*
X129655000Y-136256666D01*
X129655000Y-136256666D02*
X129702619Y-136113809D01*
X129702619Y-136113809D02*
X129702619Y-135875714D01*
X129702619Y-137399523D02*
X129702619Y-136828095D01*
X129702619Y-137113809D02*
X128702619Y-137113809D01*
X128702619Y-137113809D02*
X128845476Y-137018571D01*
X128845476Y-137018571D02*
X128940714Y-136923333D01*
X128940714Y-136923333D02*
X128988333Y-136828095D01*
X128702619Y-138256666D02*
X128702619Y-138066190D01*
X128702619Y-138066190D02*
X128750238Y-137970952D01*
X128750238Y-137970952D02*
X128797857Y-137923333D01*
X128797857Y-137923333D02*
X128940714Y-137828095D01*
X128940714Y-137828095D02*
X129131190Y-137780476D01*
X129131190Y-137780476D02*
X129512142Y-137780476D01*
X129512142Y-137780476D02*
X129607380Y-137828095D01*
X129607380Y-137828095D02*
X129655000Y-137875714D01*
X129655000Y-137875714D02*
X129702619Y-137970952D01*
X129702619Y-137970952D02*
X129702619Y-138161428D01*
X129702619Y-138161428D02*
X129655000Y-138256666D01*
X129655000Y-138256666D02*
X129607380Y-138304285D01*
X129607380Y-138304285D02*
X129512142Y-138351904D01*
X129512142Y-138351904D02*
X129274047Y-138351904D01*
X129274047Y-138351904D02*
X129178809Y-138304285D01*
X129178809Y-138304285D02*
X129131190Y-138256666D01*
X129131190Y-138256666D02*
X129083571Y-138161428D01*
X129083571Y-138161428D02*
X129083571Y-137970952D01*
X129083571Y-137970952D02*
X129131190Y-137875714D01*
X129131190Y-137875714D02*
X129178809Y-137828095D01*
X129178809Y-137828095D02*
X129274047Y-137780476D01*
X131602619Y-140638095D02*
X130602619Y-140638095D01*
X131602619Y-141209523D02*
X131031190Y-140780952D01*
X130602619Y-141209523D02*
X131174047Y-140638095D01*
%TO.C,D9*%
X72462619Y-117311905D02*
X71462619Y-117311905D01*
X71462619Y-117311905D02*
X71462619Y-117550000D01*
X71462619Y-117550000D02*
X71510238Y-117692857D01*
X71510238Y-117692857D02*
X71605476Y-117788095D01*
X71605476Y-117788095D02*
X71700714Y-117835714D01*
X71700714Y-117835714D02*
X71891190Y-117883333D01*
X71891190Y-117883333D02*
X72034047Y-117883333D01*
X72034047Y-117883333D02*
X72224523Y-117835714D01*
X72224523Y-117835714D02*
X72319761Y-117788095D01*
X72319761Y-117788095D02*
X72415000Y-117692857D01*
X72415000Y-117692857D02*
X72462619Y-117550000D01*
X72462619Y-117550000D02*
X72462619Y-117311905D01*
X72462619Y-118359524D02*
X72462619Y-118550000D01*
X72462619Y-118550000D02*
X72415000Y-118645238D01*
X72415000Y-118645238D02*
X72367380Y-118692857D01*
X72367380Y-118692857D02*
X72224523Y-118788095D01*
X72224523Y-118788095D02*
X72034047Y-118835714D01*
X72034047Y-118835714D02*
X71653095Y-118835714D01*
X71653095Y-118835714D02*
X71557857Y-118788095D01*
X71557857Y-118788095D02*
X71510238Y-118740476D01*
X71510238Y-118740476D02*
X71462619Y-118645238D01*
X71462619Y-118645238D02*
X71462619Y-118454762D01*
X71462619Y-118454762D02*
X71510238Y-118359524D01*
X71510238Y-118359524D02*
X71557857Y-118311905D01*
X71557857Y-118311905D02*
X71653095Y-118264286D01*
X71653095Y-118264286D02*
X71891190Y-118264286D01*
X71891190Y-118264286D02*
X71986428Y-118311905D01*
X71986428Y-118311905D02*
X72034047Y-118359524D01*
X72034047Y-118359524D02*
X72081666Y-118454762D01*
X72081666Y-118454762D02*
X72081666Y-118645238D01*
X72081666Y-118645238D02*
X72034047Y-118740476D01*
X72034047Y-118740476D02*
X71986428Y-118788095D01*
X71986428Y-118788095D02*
X71891190Y-118835714D01*
X74362619Y-121598095D02*
X73362619Y-121598095D01*
X74362619Y-122169523D02*
X73791190Y-121740952D01*
X73362619Y-122169523D02*
X73934047Y-121598095D01*
%TO.C,D6*%
X91622619Y-98271905D02*
X90622619Y-98271905D01*
X90622619Y-98271905D02*
X90622619Y-98510000D01*
X90622619Y-98510000D02*
X90670238Y-98652857D01*
X90670238Y-98652857D02*
X90765476Y-98748095D01*
X90765476Y-98748095D02*
X90860714Y-98795714D01*
X90860714Y-98795714D02*
X91051190Y-98843333D01*
X91051190Y-98843333D02*
X91194047Y-98843333D01*
X91194047Y-98843333D02*
X91384523Y-98795714D01*
X91384523Y-98795714D02*
X91479761Y-98748095D01*
X91479761Y-98748095D02*
X91575000Y-98652857D01*
X91575000Y-98652857D02*
X91622619Y-98510000D01*
X91622619Y-98510000D02*
X91622619Y-98271905D01*
X90622619Y-99700476D02*
X90622619Y-99510000D01*
X90622619Y-99510000D02*
X90670238Y-99414762D01*
X90670238Y-99414762D02*
X90717857Y-99367143D01*
X90717857Y-99367143D02*
X90860714Y-99271905D01*
X90860714Y-99271905D02*
X91051190Y-99224286D01*
X91051190Y-99224286D02*
X91432142Y-99224286D01*
X91432142Y-99224286D02*
X91527380Y-99271905D01*
X91527380Y-99271905D02*
X91575000Y-99319524D01*
X91575000Y-99319524D02*
X91622619Y-99414762D01*
X91622619Y-99414762D02*
X91622619Y-99605238D01*
X91622619Y-99605238D02*
X91575000Y-99700476D01*
X91575000Y-99700476D02*
X91527380Y-99748095D01*
X91527380Y-99748095D02*
X91432142Y-99795714D01*
X91432142Y-99795714D02*
X91194047Y-99795714D01*
X91194047Y-99795714D02*
X91098809Y-99748095D01*
X91098809Y-99748095D02*
X91051190Y-99700476D01*
X91051190Y-99700476D02*
X91003571Y-99605238D01*
X91003571Y-99605238D02*
X91003571Y-99414762D01*
X91003571Y-99414762D02*
X91051190Y-99319524D01*
X91051190Y-99319524D02*
X91098809Y-99271905D01*
X91098809Y-99271905D02*
X91194047Y-99224286D01*
X93522619Y-102558095D02*
X92522619Y-102558095D01*
X93522619Y-103129523D02*
X92951190Y-102700952D01*
X92522619Y-103129523D02*
X93094047Y-102558095D01*
%TO.C,D23*%
X110662619Y-173955714D02*
X109662619Y-173955714D01*
X109662619Y-173955714D02*
X109662619Y-174193809D01*
X109662619Y-174193809D02*
X109710238Y-174336666D01*
X109710238Y-174336666D02*
X109805476Y-174431904D01*
X109805476Y-174431904D02*
X109900714Y-174479523D01*
X109900714Y-174479523D02*
X110091190Y-174527142D01*
X110091190Y-174527142D02*
X110234047Y-174527142D01*
X110234047Y-174527142D02*
X110424523Y-174479523D01*
X110424523Y-174479523D02*
X110519761Y-174431904D01*
X110519761Y-174431904D02*
X110615000Y-174336666D01*
X110615000Y-174336666D02*
X110662619Y-174193809D01*
X110662619Y-174193809D02*
X110662619Y-173955714D01*
X109757857Y-174908095D02*
X109710238Y-174955714D01*
X109710238Y-174955714D02*
X109662619Y-175050952D01*
X109662619Y-175050952D02*
X109662619Y-175289047D01*
X109662619Y-175289047D02*
X109710238Y-175384285D01*
X109710238Y-175384285D02*
X109757857Y-175431904D01*
X109757857Y-175431904D02*
X109853095Y-175479523D01*
X109853095Y-175479523D02*
X109948333Y-175479523D01*
X109948333Y-175479523D02*
X110091190Y-175431904D01*
X110091190Y-175431904D02*
X110662619Y-174860476D01*
X110662619Y-174860476D02*
X110662619Y-175479523D01*
X109662619Y-175812857D02*
X109662619Y-176431904D01*
X109662619Y-176431904D02*
X110043571Y-176098571D01*
X110043571Y-176098571D02*
X110043571Y-176241428D01*
X110043571Y-176241428D02*
X110091190Y-176336666D01*
X110091190Y-176336666D02*
X110138809Y-176384285D01*
X110138809Y-176384285D02*
X110234047Y-176431904D01*
X110234047Y-176431904D02*
X110472142Y-176431904D01*
X110472142Y-176431904D02*
X110567380Y-176384285D01*
X110567380Y-176384285D02*
X110615000Y-176336666D01*
X110615000Y-176336666D02*
X110662619Y-176241428D01*
X110662619Y-176241428D02*
X110662619Y-175955714D01*
X110662619Y-175955714D02*
X110615000Y-175860476D01*
X110615000Y-175860476D02*
X110567380Y-175812857D01*
X112562619Y-178718095D02*
X111562619Y-178718095D01*
X112562619Y-179289523D02*
X111991190Y-178860952D01*
X111562619Y-179289523D02*
X112134047Y-178718095D01*
%TO.C,D10*%
X91622619Y-116835714D02*
X90622619Y-116835714D01*
X90622619Y-116835714D02*
X90622619Y-117073809D01*
X90622619Y-117073809D02*
X90670238Y-117216666D01*
X90670238Y-117216666D02*
X90765476Y-117311904D01*
X90765476Y-117311904D02*
X90860714Y-117359523D01*
X90860714Y-117359523D02*
X91051190Y-117407142D01*
X91051190Y-117407142D02*
X91194047Y-117407142D01*
X91194047Y-117407142D02*
X91384523Y-117359523D01*
X91384523Y-117359523D02*
X91479761Y-117311904D01*
X91479761Y-117311904D02*
X91575000Y-117216666D01*
X91575000Y-117216666D02*
X91622619Y-117073809D01*
X91622619Y-117073809D02*
X91622619Y-116835714D01*
X91622619Y-118359523D02*
X91622619Y-117788095D01*
X91622619Y-118073809D02*
X90622619Y-118073809D01*
X90622619Y-118073809D02*
X90765476Y-117978571D01*
X90765476Y-117978571D02*
X90860714Y-117883333D01*
X90860714Y-117883333D02*
X90908333Y-117788095D01*
X90622619Y-118978571D02*
X90622619Y-119073809D01*
X90622619Y-119073809D02*
X90670238Y-119169047D01*
X90670238Y-119169047D02*
X90717857Y-119216666D01*
X90717857Y-119216666D02*
X90813095Y-119264285D01*
X90813095Y-119264285D02*
X91003571Y-119311904D01*
X91003571Y-119311904D02*
X91241666Y-119311904D01*
X91241666Y-119311904D02*
X91432142Y-119264285D01*
X91432142Y-119264285D02*
X91527380Y-119216666D01*
X91527380Y-119216666D02*
X91575000Y-119169047D01*
X91575000Y-119169047D02*
X91622619Y-119073809D01*
X91622619Y-119073809D02*
X91622619Y-118978571D01*
X91622619Y-118978571D02*
X91575000Y-118883333D01*
X91575000Y-118883333D02*
X91527380Y-118835714D01*
X91527380Y-118835714D02*
X91432142Y-118788095D01*
X91432142Y-118788095D02*
X91241666Y-118740476D01*
X91241666Y-118740476D02*
X91003571Y-118740476D01*
X91003571Y-118740476D02*
X90813095Y-118788095D01*
X90813095Y-118788095D02*
X90717857Y-118835714D01*
X90717857Y-118835714D02*
X90670238Y-118883333D01*
X90670238Y-118883333D02*
X90622619Y-118978571D01*
X93522619Y-121598095D02*
X92522619Y-121598095D01*
X93522619Y-122169523D02*
X92951190Y-121740952D01*
X92522619Y-122169523D02*
X93094047Y-121598095D01*
%TO.C,D14*%
X91622619Y-135875714D02*
X90622619Y-135875714D01*
X90622619Y-135875714D02*
X90622619Y-136113809D01*
X90622619Y-136113809D02*
X90670238Y-136256666D01*
X90670238Y-136256666D02*
X90765476Y-136351904D01*
X90765476Y-136351904D02*
X90860714Y-136399523D01*
X90860714Y-136399523D02*
X91051190Y-136447142D01*
X91051190Y-136447142D02*
X91194047Y-136447142D01*
X91194047Y-136447142D02*
X91384523Y-136399523D01*
X91384523Y-136399523D02*
X91479761Y-136351904D01*
X91479761Y-136351904D02*
X91575000Y-136256666D01*
X91575000Y-136256666D02*
X91622619Y-136113809D01*
X91622619Y-136113809D02*
X91622619Y-135875714D01*
X91622619Y-137399523D02*
X91622619Y-136828095D01*
X91622619Y-137113809D02*
X90622619Y-137113809D01*
X90622619Y-137113809D02*
X90765476Y-137018571D01*
X90765476Y-137018571D02*
X90860714Y-136923333D01*
X90860714Y-136923333D02*
X90908333Y-136828095D01*
X90955952Y-138256666D02*
X91622619Y-138256666D01*
X90575000Y-138018571D02*
X91289285Y-137780476D01*
X91289285Y-137780476D02*
X91289285Y-138399523D01*
X93522619Y-140638095D02*
X92522619Y-140638095D01*
X93522619Y-141209523D02*
X92951190Y-140780952D01*
X92522619Y-141209523D02*
X93094047Y-140638095D01*
%TO.C,D19*%
X110662619Y-154915714D02*
X109662619Y-154915714D01*
X109662619Y-154915714D02*
X109662619Y-155153809D01*
X109662619Y-155153809D02*
X109710238Y-155296666D01*
X109710238Y-155296666D02*
X109805476Y-155391904D01*
X109805476Y-155391904D02*
X109900714Y-155439523D01*
X109900714Y-155439523D02*
X110091190Y-155487142D01*
X110091190Y-155487142D02*
X110234047Y-155487142D01*
X110234047Y-155487142D02*
X110424523Y-155439523D01*
X110424523Y-155439523D02*
X110519761Y-155391904D01*
X110519761Y-155391904D02*
X110615000Y-155296666D01*
X110615000Y-155296666D02*
X110662619Y-155153809D01*
X110662619Y-155153809D02*
X110662619Y-154915714D01*
X110662619Y-156439523D02*
X110662619Y-155868095D01*
X110662619Y-156153809D02*
X109662619Y-156153809D01*
X109662619Y-156153809D02*
X109805476Y-156058571D01*
X109805476Y-156058571D02*
X109900714Y-155963333D01*
X109900714Y-155963333D02*
X109948333Y-155868095D01*
X110662619Y-156915714D02*
X110662619Y-157106190D01*
X110662619Y-157106190D02*
X110615000Y-157201428D01*
X110615000Y-157201428D02*
X110567380Y-157249047D01*
X110567380Y-157249047D02*
X110424523Y-157344285D01*
X110424523Y-157344285D02*
X110234047Y-157391904D01*
X110234047Y-157391904D02*
X109853095Y-157391904D01*
X109853095Y-157391904D02*
X109757857Y-157344285D01*
X109757857Y-157344285D02*
X109710238Y-157296666D01*
X109710238Y-157296666D02*
X109662619Y-157201428D01*
X109662619Y-157201428D02*
X109662619Y-157010952D01*
X109662619Y-157010952D02*
X109710238Y-156915714D01*
X109710238Y-156915714D02*
X109757857Y-156868095D01*
X109757857Y-156868095D02*
X109853095Y-156820476D01*
X109853095Y-156820476D02*
X110091190Y-156820476D01*
X110091190Y-156820476D02*
X110186428Y-156868095D01*
X110186428Y-156868095D02*
X110234047Y-156915714D01*
X110234047Y-156915714D02*
X110281666Y-157010952D01*
X110281666Y-157010952D02*
X110281666Y-157201428D01*
X110281666Y-157201428D02*
X110234047Y-157296666D01*
X110234047Y-157296666D02*
X110186428Y-157344285D01*
X110186428Y-157344285D02*
X110091190Y-157391904D01*
X112562619Y-159678095D02*
X111562619Y-159678095D01*
X112562619Y-160249523D02*
X111991190Y-159820952D01*
X111562619Y-160249523D02*
X112134047Y-159678095D01*
%TO.C,D20*%
X129942619Y-162595714D02*
X128942619Y-162595714D01*
X128942619Y-162595714D02*
X128942619Y-162833809D01*
X128942619Y-162833809D02*
X128990238Y-162976666D01*
X128990238Y-162976666D02*
X129085476Y-163071904D01*
X129085476Y-163071904D02*
X129180714Y-163119523D01*
X129180714Y-163119523D02*
X129371190Y-163167142D01*
X129371190Y-163167142D02*
X129514047Y-163167142D01*
X129514047Y-163167142D02*
X129704523Y-163119523D01*
X129704523Y-163119523D02*
X129799761Y-163071904D01*
X129799761Y-163071904D02*
X129895000Y-162976666D01*
X129895000Y-162976666D02*
X129942619Y-162833809D01*
X129942619Y-162833809D02*
X129942619Y-162595714D01*
X129037857Y-163548095D02*
X128990238Y-163595714D01*
X128990238Y-163595714D02*
X128942619Y-163690952D01*
X128942619Y-163690952D02*
X128942619Y-163929047D01*
X128942619Y-163929047D02*
X128990238Y-164024285D01*
X128990238Y-164024285D02*
X129037857Y-164071904D01*
X129037857Y-164071904D02*
X129133095Y-164119523D01*
X129133095Y-164119523D02*
X129228333Y-164119523D01*
X129228333Y-164119523D02*
X129371190Y-164071904D01*
X129371190Y-164071904D02*
X129942619Y-163500476D01*
X129942619Y-163500476D02*
X129942619Y-164119523D01*
X128942619Y-164738571D02*
X128942619Y-164833809D01*
X128942619Y-164833809D02*
X128990238Y-164929047D01*
X128990238Y-164929047D02*
X129037857Y-164976666D01*
X129037857Y-164976666D02*
X129133095Y-165024285D01*
X129133095Y-165024285D02*
X129323571Y-165071904D01*
X129323571Y-165071904D02*
X129561666Y-165071904D01*
X129561666Y-165071904D02*
X129752142Y-165024285D01*
X129752142Y-165024285D02*
X129847380Y-164976666D01*
X129847380Y-164976666D02*
X129895000Y-164929047D01*
X129895000Y-164929047D02*
X129942619Y-164833809D01*
X129942619Y-164833809D02*
X129942619Y-164738571D01*
X129942619Y-164738571D02*
X129895000Y-164643333D01*
X129895000Y-164643333D02*
X129847380Y-164595714D01*
X129847380Y-164595714D02*
X129752142Y-164548095D01*
X129752142Y-164548095D02*
X129561666Y-164500476D01*
X129561666Y-164500476D02*
X129323571Y-164500476D01*
X129323571Y-164500476D02*
X129133095Y-164548095D01*
X129133095Y-164548095D02*
X129037857Y-164595714D01*
X129037857Y-164595714D02*
X128990238Y-164643333D01*
X128990238Y-164643333D02*
X128942619Y-164738571D01*
X128042619Y-159738095D02*
X127042619Y-159738095D01*
X128042619Y-160309523D02*
X127471190Y-159880952D01*
X127042619Y-160309523D02*
X127614047Y-159738095D01*
%TO.C,D3*%
X110662619Y-69191905D02*
X109662619Y-69191905D01*
X109662619Y-69191905D02*
X109662619Y-69430000D01*
X109662619Y-69430000D02*
X109710238Y-69572857D01*
X109710238Y-69572857D02*
X109805476Y-69668095D01*
X109805476Y-69668095D02*
X109900714Y-69715714D01*
X109900714Y-69715714D02*
X110091190Y-69763333D01*
X110091190Y-69763333D02*
X110234047Y-69763333D01*
X110234047Y-69763333D02*
X110424523Y-69715714D01*
X110424523Y-69715714D02*
X110519761Y-69668095D01*
X110519761Y-69668095D02*
X110615000Y-69572857D01*
X110615000Y-69572857D02*
X110662619Y-69430000D01*
X110662619Y-69430000D02*
X110662619Y-69191905D01*
X109662619Y-70096667D02*
X109662619Y-70715714D01*
X109662619Y-70715714D02*
X110043571Y-70382381D01*
X110043571Y-70382381D02*
X110043571Y-70525238D01*
X110043571Y-70525238D02*
X110091190Y-70620476D01*
X110091190Y-70620476D02*
X110138809Y-70668095D01*
X110138809Y-70668095D02*
X110234047Y-70715714D01*
X110234047Y-70715714D02*
X110472142Y-70715714D01*
X110472142Y-70715714D02*
X110567380Y-70668095D01*
X110567380Y-70668095D02*
X110615000Y-70620476D01*
X110615000Y-70620476D02*
X110662619Y-70525238D01*
X110662619Y-70525238D02*
X110662619Y-70239524D01*
X110662619Y-70239524D02*
X110615000Y-70144286D01*
X110615000Y-70144286D02*
X110567380Y-70096667D01*
X112562619Y-73478095D02*
X111562619Y-73478095D01*
X112562619Y-74049523D02*
X111991190Y-73620952D01*
X111562619Y-74049523D02*
X112134047Y-73478095D01*
%TO.C,D4*%
X129702619Y-69191905D02*
X128702619Y-69191905D01*
X128702619Y-69191905D02*
X128702619Y-69430000D01*
X128702619Y-69430000D02*
X128750238Y-69572857D01*
X128750238Y-69572857D02*
X128845476Y-69668095D01*
X128845476Y-69668095D02*
X128940714Y-69715714D01*
X128940714Y-69715714D02*
X129131190Y-69763333D01*
X129131190Y-69763333D02*
X129274047Y-69763333D01*
X129274047Y-69763333D02*
X129464523Y-69715714D01*
X129464523Y-69715714D02*
X129559761Y-69668095D01*
X129559761Y-69668095D02*
X129655000Y-69572857D01*
X129655000Y-69572857D02*
X129702619Y-69430000D01*
X129702619Y-69430000D02*
X129702619Y-69191905D01*
X129035952Y-70620476D02*
X129702619Y-70620476D01*
X128655000Y-70382381D02*
X129369285Y-70144286D01*
X129369285Y-70144286D02*
X129369285Y-70763333D01*
X131602619Y-73478095D02*
X130602619Y-73478095D01*
X131602619Y-74049523D02*
X131031190Y-73620952D01*
X130602619Y-74049523D02*
X131174047Y-73478095D01*
D11*
%TO.C,D17*%
X70530000Y-158850000D02*
X70530000Y-153410000D01*
X70860000Y-158850000D02*
X70530000Y-158850000D01*
X73140000Y-158850000D02*
X73470000Y-158850000D01*
X73470000Y-158850000D02*
X73470000Y-153410000D01*
X73470000Y-158070000D02*
X70530000Y-158070000D01*
X73470000Y-157950000D02*
X70530000Y-157950000D01*
X73470000Y-157830000D02*
X70530000Y-157830000D01*
X70530000Y-153410000D02*
X70860000Y-153410000D01*
X73470000Y-153410000D02*
X73140000Y-153410000D01*
%TO.C,J2*%
X102810000Y-61670000D02*
X102810000Y-59010000D01*
X143510000Y-61670000D02*
X102810000Y-61670000D01*
X143510000Y-61670000D02*
X143510000Y-59010000D01*
X144780000Y-61670000D02*
X146110000Y-61670000D01*
X146110000Y-61670000D02*
X146110000Y-60340000D01*
X143510000Y-59010000D02*
X102810000Y-59010000D01*
%TO.C,D21*%
X70530000Y-177890000D02*
X70530000Y-172450000D01*
X70860000Y-177890000D02*
X70530000Y-177890000D01*
X73140000Y-177890000D02*
X73470000Y-177890000D01*
X73470000Y-177890000D02*
X73470000Y-172450000D01*
X73470000Y-177110000D02*
X70530000Y-177110000D01*
X73470000Y-176990000D02*
X70530000Y-176990000D01*
X73470000Y-176870000D02*
X70530000Y-176870000D01*
X70530000Y-172450000D02*
X70860000Y-172450000D01*
X73470000Y-172450000D02*
X73140000Y-172450000D01*
%TO.C,D18*%
X89690000Y-158850000D02*
X89690000Y-153410000D01*
X90020000Y-158850000D02*
X89690000Y-158850000D01*
X92300000Y-158850000D02*
X92630000Y-158850000D01*
X92630000Y-158850000D02*
X92630000Y-153410000D01*
X92630000Y-158070000D02*
X89690000Y-158070000D01*
X92630000Y-157950000D02*
X89690000Y-157950000D01*
X92630000Y-157830000D02*
X89690000Y-157830000D01*
X89690000Y-153410000D02*
X90020000Y-153410000D01*
X92630000Y-153410000D02*
X92300000Y-153410000D01*
%TO.C,D1*%
X70530000Y-72650000D02*
X70530000Y-67210000D01*
X70860000Y-72650000D02*
X70530000Y-72650000D01*
X73140000Y-72650000D02*
X73470000Y-72650000D01*
X73470000Y-72650000D02*
X73470000Y-67210000D01*
X73470000Y-71870000D02*
X70530000Y-71870000D01*
X73470000Y-71750000D02*
X70530000Y-71750000D01*
X73470000Y-71630000D02*
X70530000Y-71630000D01*
X70530000Y-67210000D02*
X70860000Y-67210000D01*
X73470000Y-67210000D02*
X73140000Y-67210000D01*
%TO.C,D15*%
X108730000Y-139810000D02*
X108730000Y-134370000D01*
X109060000Y-139810000D02*
X108730000Y-139810000D01*
X111340000Y-139810000D02*
X111670000Y-139810000D01*
X111670000Y-139810000D02*
X111670000Y-134370000D01*
X111670000Y-139030000D02*
X108730000Y-139030000D01*
X111670000Y-138910000D02*
X108730000Y-138910000D01*
X111670000Y-138790000D02*
X108730000Y-138790000D01*
X108730000Y-134370000D02*
X109060000Y-134370000D01*
X111670000Y-134370000D02*
X111340000Y-134370000D01*
%TO.C,D2*%
X89690000Y-72650000D02*
X89690000Y-67210000D01*
X90020000Y-72650000D02*
X89690000Y-72650000D01*
X92300000Y-72650000D02*
X92630000Y-72650000D01*
X92630000Y-72650000D02*
X92630000Y-67210000D01*
X92630000Y-71870000D02*
X89690000Y-71870000D01*
X92630000Y-71750000D02*
X89690000Y-71750000D01*
X92630000Y-71630000D02*
X89690000Y-71630000D01*
X89690000Y-67210000D02*
X90020000Y-67210000D01*
X92630000Y-67210000D02*
X92300000Y-67210000D01*
%TO.C,D13*%
X70530000Y-139810000D02*
X70530000Y-134370000D01*
X70860000Y-139810000D02*
X70530000Y-139810000D01*
X73140000Y-139810000D02*
X73470000Y-139810000D01*
X73470000Y-139810000D02*
X73470000Y-134370000D01*
X73470000Y-139030000D02*
X70530000Y-139030000D01*
X73470000Y-138910000D02*
X70530000Y-138910000D01*
X73470000Y-138790000D02*
X70530000Y-138790000D01*
X70530000Y-134370000D02*
X70860000Y-134370000D01*
X73470000Y-134370000D02*
X73140000Y-134370000D01*
%TO.C,D8*%
X127770000Y-101730000D02*
X127770000Y-96290000D01*
X128100000Y-101730000D02*
X127770000Y-101730000D01*
X130380000Y-101730000D02*
X130710000Y-101730000D01*
X130710000Y-101730000D02*
X130710000Y-96290000D01*
X130710000Y-100950000D02*
X127770000Y-100950000D01*
X130710000Y-100830000D02*
X127770000Y-100830000D01*
X130710000Y-100710000D02*
X127770000Y-100710000D01*
X127770000Y-96290000D02*
X128100000Y-96290000D01*
X130710000Y-96290000D02*
X130380000Y-96290000D01*
%TO.C,D5*%
X70530000Y-101730000D02*
X70530000Y-96290000D01*
X70860000Y-101730000D02*
X70530000Y-101730000D01*
X73140000Y-101730000D02*
X73470000Y-101730000D01*
X73470000Y-101730000D02*
X73470000Y-96290000D01*
X73470000Y-100950000D02*
X70530000Y-100950000D01*
X73470000Y-100830000D02*
X70530000Y-100830000D01*
X73470000Y-100710000D02*
X70530000Y-100710000D01*
X70530000Y-96290000D02*
X70860000Y-96290000D01*
X73470000Y-96290000D02*
X73140000Y-96290000D01*
%TO.C,D7*%
X108730000Y-101730000D02*
X108730000Y-96290000D01*
X109060000Y-101730000D02*
X108730000Y-101730000D01*
X111340000Y-101730000D02*
X111670000Y-101730000D01*
X111670000Y-101730000D02*
X111670000Y-96290000D01*
X111670000Y-100950000D02*
X108730000Y-100950000D01*
X111670000Y-100830000D02*
X108730000Y-100830000D01*
X111670000Y-100710000D02*
X108730000Y-100710000D01*
X108730000Y-96290000D02*
X109060000Y-96290000D01*
X111670000Y-96290000D02*
X111340000Y-96290000D01*
%TO.C,D12*%
X127770000Y-120770000D02*
X127770000Y-115330000D01*
X128100000Y-120770000D02*
X127770000Y-120770000D01*
X130380000Y-120770000D02*
X130710000Y-120770000D01*
X130710000Y-120770000D02*
X130710000Y-115330000D01*
X130710000Y-119990000D02*
X127770000Y-119990000D01*
X130710000Y-119870000D02*
X127770000Y-119870000D01*
X130710000Y-119750000D02*
X127770000Y-119750000D01*
X127770000Y-115330000D02*
X128100000Y-115330000D01*
X130710000Y-115330000D02*
X130380000Y-115330000D01*
%TO.C,D11*%
X108730000Y-120770000D02*
X108730000Y-115330000D01*
X109060000Y-120770000D02*
X108730000Y-120770000D01*
X111340000Y-120770000D02*
X111670000Y-120770000D01*
X111670000Y-120770000D02*
X111670000Y-115330000D01*
X111670000Y-119990000D02*
X108730000Y-119990000D01*
X111670000Y-119870000D02*
X108730000Y-119870000D01*
X111670000Y-119750000D02*
X108730000Y-119750000D01*
X108730000Y-115330000D02*
X109060000Y-115330000D01*
X111670000Y-115330000D02*
X111340000Y-115330000D01*
%TO.C,D22*%
X89690000Y-177890000D02*
X89690000Y-172450000D01*
X90020000Y-177890000D02*
X89690000Y-177890000D01*
X92300000Y-177890000D02*
X92630000Y-177890000D01*
X92630000Y-177890000D02*
X92630000Y-172450000D01*
X92630000Y-177110000D02*
X89690000Y-177110000D01*
X92630000Y-176990000D02*
X89690000Y-176990000D01*
X92630000Y-176870000D02*
X89690000Y-176870000D01*
X89690000Y-172450000D02*
X90020000Y-172450000D01*
X92630000Y-172450000D02*
X92300000Y-172450000D01*
%TO.C,D16*%
X127770000Y-139810000D02*
X127770000Y-134370000D01*
X128100000Y-139810000D02*
X127770000Y-139810000D01*
X130380000Y-139810000D02*
X130710000Y-139810000D01*
X130710000Y-139810000D02*
X130710000Y-134370000D01*
X130710000Y-139030000D02*
X127770000Y-139030000D01*
X130710000Y-138910000D02*
X127770000Y-138910000D01*
X130710000Y-138790000D02*
X127770000Y-138790000D01*
X127770000Y-134370000D02*
X128100000Y-134370000D01*
X130710000Y-134370000D02*
X130380000Y-134370000D01*
%TO.C,D9*%
X70530000Y-120770000D02*
X70530000Y-115330000D01*
X70860000Y-120770000D02*
X70530000Y-120770000D01*
X73140000Y-120770000D02*
X73470000Y-120770000D01*
X73470000Y-120770000D02*
X73470000Y-115330000D01*
X73470000Y-119990000D02*
X70530000Y-119990000D01*
X73470000Y-119870000D02*
X70530000Y-119870000D01*
X73470000Y-119750000D02*
X70530000Y-119750000D01*
X70530000Y-115330000D02*
X70860000Y-115330000D01*
X73470000Y-115330000D02*
X73140000Y-115330000D01*
%TO.C,D6*%
X89690000Y-101730000D02*
X89690000Y-96290000D01*
X90020000Y-101730000D02*
X89690000Y-101730000D01*
X92300000Y-101730000D02*
X92630000Y-101730000D01*
X92630000Y-101730000D02*
X92630000Y-96290000D01*
X92630000Y-100950000D02*
X89690000Y-100950000D01*
X92630000Y-100830000D02*
X89690000Y-100830000D01*
X92630000Y-100710000D02*
X89690000Y-100710000D01*
X89690000Y-96290000D02*
X90020000Y-96290000D01*
X92630000Y-96290000D02*
X92300000Y-96290000D01*
%TO.C,D23*%
X108730000Y-177890000D02*
X108730000Y-172450000D01*
X109060000Y-177890000D02*
X108730000Y-177890000D01*
X111340000Y-177890000D02*
X111670000Y-177890000D01*
X111670000Y-177890000D02*
X111670000Y-172450000D01*
X111670000Y-177110000D02*
X108730000Y-177110000D01*
X111670000Y-176990000D02*
X108730000Y-176990000D01*
X111670000Y-176870000D02*
X108730000Y-176870000D01*
X108730000Y-172450000D02*
X109060000Y-172450000D01*
X111670000Y-172450000D02*
X111340000Y-172450000D01*
%TO.C,J1*%
X102810000Y-79910000D02*
X102810000Y-77250000D01*
X143510000Y-79910000D02*
X102810000Y-79910000D01*
X143510000Y-79910000D02*
X143510000Y-77250000D01*
X144780000Y-79910000D02*
X146110000Y-79910000D01*
X146110000Y-79910000D02*
X146110000Y-78580000D01*
X143510000Y-77250000D02*
X102810000Y-77250000D01*
%TO.C,D10*%
X89690000Y-120770000D02*
X89690000Y-115330000D01*
X90020000Y-120770000D02*
X89690000Y-120770000D01*
X92300000Y-120770000D02*
X92630000Y-120770000D01*
X92630000Y-120770000D02*
X92630000Y-115330000D01*
X92630000Y-119990000D02*
X89690000Y-119990000D01*
X92630000Y-119870000D02*
X89690000Y-119870000D01*
X92630000Y-119750000D02*
X89690000Y-119750000D01*
X89690000Y-115330000D02*
X90020000Y-115330000D01*
X92630000Y-115330000D02*
X92300000Y-115330000D01*
%TO.C,D14*%
X89690000Y-139810000D02*
X89690000Y-134370000D01*
X90020000Y-139810000D02*
X89690000Y-139810000D01*
X92300000Y-139810000D02*
X92630000Y-139810000D01*
X92630000Y-139810000D02*
X92630000Y-134370000D01*
X92630000Y-139030000D02*
X89690000Y-139030000D01*
X92630000Y-138910000D02*
X89690000Y-138910000D01*
X92630000Y-138790000D02*
X89690000Y-138790000D01*
X89690000Y-134370000D02*
X90020000Y-134370000D01*
X92630000Y-134370000D02*
X92300000Y-134370000D01*
%TO.C,D19*%
X108730000Y-158850000D02*
X108730000Y-153410000D01*
X109060000Y-158850000D02*
X108730000Y-158850000D01*
X111340000Y-158850000D02*
X111670000Y-158850000D01*
X111670000Y-158850000D02*
X111670000Y-153410000D01*
X111670000Y-158070000D02*
X108730000Y-158070000D01*
X111670000Y-157950000D02*
X108730000Y-157950000D01*
X111670000Y-157830000D02*
X108730000Y-157830000D01*
X108730000Y-153410000D02*
X109060000Y-153410000D01*
X111670000Y-153410000D02*
X111340000Y-153410000D01*
%TO.C,D20*%
X130950000Y-161090000D02*
X130950000Y-166530000D01*
X130620000Y-161090000D02*
X130950000Y-161090000D01*
X128340000Y-161090000D02*
X128010000Y-161090000D01*
X128010000Y-161090000D02*
X128010000Y-166530000D01*
X128010000Y-161870000D02*
X130950000Y-161870000D01*
X128010000Y-161990000D02*
X130950000Y-161990000D01*
X128010000Y-162110000D02*
X130950000Y-162110000D01*
X130950000Y-166530000D02*
X130620000Y-166530000D01*
X128010000Y-166530000D02*
X128340000Y-166530000D01*
%TO.C,D3*%
X108730000Y-72650000D02*
X108730000Y-67210000D01*
X109060000Y-72650000D02*
X108730000Y-72650000D01*
X111340000Y-72650000D02*
X111670000Y-72650000D01*
X111670000Y-72650000D02*
X111670000Y-67210000D01*
X111670000Y-71870000D02*
X108730000Y-71870000D01*
X111670000Y-71750000D02*
X108730000Y-71750000D01*
X111670000Y-71630000D02*
X108730000Y-71630000D01*
X108730000Y-67210000D02*
X109060000Y-67210000D01*
X111670000Y-67210000D02*
X111340000Y-67210000D01*
%TO.C,D4*%
X127770000Y-72650000D02*
X127770000Y-67210000D01*
X128100000Y-72650000D02*
X127770000Y-72650000D01*
X130380000Y-72650000D02*
X130710000Y-72650000D01*
X130710000Y-72650000D02*
X130710000Y-67210000D01*
X130710000Y-71870000D02*
X127770000Y-71870000D01*
X130710000Y-71750000D02*
X127770000Y-71750000D01*
X130710000Y-71630000D02*
X127770000Y-71630000D01*
X127770000Y-67210000D02*
X128100000Y-67210000D01*
X130710000Y-67210000D02*
X130380000Y-67210000D01*
%TD*%
M02*
