M48
; DRILL file {KiCad 7.0.2} date Thu Sep 28 02:32:08 2023
; FORMAT={-:-/ absolute / inch / decimal}
; #@! TF.CreationDate,2023-09-28T02:32:08+09:00
; #@! TF.GenerationSoftware,Kicad,Pcbnew,7.0.2
; #@! TF.FileFunction,Plated,1,2,PTH
FMAT,2
INCH
; #@! TA.AperFunction,Plated,PTH,ComponentDrill
T1C0.0354
; #@! TA.AperFunction,Plated,PTH,ComponentDrill
T2C0.0394
; #@! TA.AperFunction,Plated,PTH,ComponentDrill
T3C0.0591
%
G90
G05
T1
X2.8346Y-2.6031
X2.8346Y-2.9031
X2.8346Y-3.748
X2.8346Y-4.048
X2.8346Y-4.4976
X2.8346Y-4.7976
X2.8346Y-5.2472
X2.8346Y-5.5472
X2.8346Y-5.9969
X2.8346Y-6.2969
X2.8346Y-6.7465
X2.8346Y-7.0465
X3.589Y-2.6031
X3.589Y-2.9031
X3.589Y-3.748
X3.589Y-4.048
X3.589Y-4.4976
X3.589Y-4.7976
X3.589Y-5.2472
X3.589Y-5.5472
X3.589Y-5.9969
X3.589Y-6.2969
X3.589Y-6.7465
X3.589Y-7.0465
X4.3386Y-2.6031
X4.3386Y-2.9031
X4.3386Y-3.748
X4.3386Y-4.048
X4.3386Y-4.4976
X4.3386Y-4.7976
X4.3386Y-5.2472
X4.3386Y-5.5472
X4.3386Y-5.9969
X4.3386Y-6.2969
X4.3386Y-6.7465
X4.3386Y-7.0465
X5.0882Y-2.6031
X5.0882Y-2.9031
X5.0882Y-3.748
X5.0882Y-4.048
X5.0882Y-4.4976
X5.0882Y-4.7976
X5.0882Y-5.2472
X5.0882Y-5.5472
X5.0976Y-6.2992
X5.0976Y-6.5992
T2
X4.1Y-2.3756
X4.1Y-3.0937
X4.2Y-2.3756
X4.2Y-3.0937
X4.3Y-2.3756
X4.3Y-3.0937
X4.4Y-2.3756
X4.4Y-3.0937
X4.5Y-2.3756
X4.5Y-3.0937
X4.6Y-2.3756
X4.6Y-3.0937
X4.7Y-2.3756
X4.7Y-3.0937
X4.8Y-2.3756
X4.8Y-3.0937
X4.9Y-2.3756
X4.9Y-3.0937
X5.0Y-2.3756
X5.0Y-3.0937
X5.1Y-2.3756
X5.1Y-3.0937
X5.2Y-2.3756
X5.2Y-3.0937
X5.3Y-2.3756
X5.3Y-3.0937
X5.4Y-2.3756
X5.4Y-3.0937
X5.5Y-2.3756
X5.5Y-3.0937
X5.6Y-2.3756
X5.6Y-3.0937
X5.7Y-2.3756
X5.7Y-3.0937
T3
X2.9984Y-2.6425
X2.9984Y-3.748
X2.9984Y-4.4976
X2.9984Y-5.2472
X2.9984Y-5.9969
X2.9984Y-6.7465
X3.2484Y-2.5425
X3.2484Y-3.648
X3.2484Y-4.3976
X3.2484Y-5.1472
X3.2484Y-5.8969
X3.2484Y-6.6465
X3.748Y-2.6425
X3.748Y-3.748
X3.748Y-4.4976
X3.748Y-5.2472
X3.748Y-5.9969
X3.748Y-6.7465
X3.998Y-2.5425
X3.998Y-3.648
X3.998Y-4.3976
X3.998Y-5.1472
X3.998Y-5.8969
X3.998Y-6.6465
X4.4976Y-2.6425
X4.4976Y-3.748
X4.4976Y-4.4976
X4.4976Y-5.2472
X4.4976Y-5.9969
X4.4976Y-6.7465
X4.7476Y-2.5425
X4.7476Y-3.648
X4.7476Y-4.3976
X4.7476Y-5.1472
X4.7476Y-5.8969
X4.7476Y-6.6465
X5.1972Y-6.3717
X5.2472Y-2.6425
X5.2472Y-3.748
X5.2472Y-4.4976
X5.2472Y-5.2472
X5.2972Y-6.6217
X5.4972Y-2.5425
X5.4972Y-3.648
X5.4972Y-4.3976
X5.4972Y-5.1472
T0
M30
