%TF.GenerationSoftware,KiCad,Pcbnew,7.0.2*%
%TF.CreationDate,2023-09-28T02:32:06+09:00*%
%TF.ProjectId,HT-Keys-TK_PCB,48542d4b-6579-4732-9d54-4b5f5043422e,rev?*%
%TF.SameCoordinates,Original*%
%TF.FileFunction,Soldermask,Bot*%
%TF.FilePolarity,Negative*%
%FSLAX46Y46*%
G04 Gerber Fmt 4.6, Leading zero omitted, Abs format (unit mm)*
G04 Created by KiCad (PCBNEW 7.0.2) date 2023-09-28 02:32:06*
%MOMM*%
%LPD*%
G01*
G04 APERTURE LIST*
%ADD10C,1.700000*%
%ADD11C,4.000000*%
%ADD12C,2.200000*%
%ADD13R,1.800000X1.800000*%
%ADD14O,1.800000X1.800000*%
%ADD15R,1.700000X1.700000*%
%ADD16O,1.700000X1.700000*%
G04 APERTURE END LIST*
D10*
%TO.C,SW13*%
X74890000Y-135820000D03*
D11*
X79970000Y-135820000D03*
D10*
X85050000Y-135820000D03*
D12*
X82510000Y-130740000D03*
X76160000Y-133280000D03*
%TD*%
D10*
%TO.C,SW8*%
X132010000Y-97740000D03*
D11*
X137090000Y-97740000D03*
D10*
X142170000Y-97740000D03*
D12*
X139630000Y-92660000D03*
X133280000Y-95200000D03*
%TD*%
D10*
%TO.C,SW17*%
X74890000Y-154860000D03*
D11*
X79970000Y-154860000D03*
D10*
X85050000Y-154860000D03*
D12*
X82510000Y-149780000D03*
X76160000Y-152320000D03*
%TD*%
D10*
%TO.C,SW2*%
X93930000Y-69660000D03*
D11*
X99010000Y-69660000D03*
D10*
X104090000Y-69660000D03*
D12*
X101550000Y-64580000D03*
X95200000Y-67120000D03*
%TD*%
D10*
%TO.C,SW22*%
X93930000Y-173900000D03*
D11*
X99010000Y-173900000D03*
D10*
X104090000Y-173900000D03*
D12*
X101550000Y-168820000D03*
X95200000Y-171360000D03*
%TD*%
D10*
%TO.C,SW4*%
X132010000Y-69660000D03*
D11*
X137090000Y-69660000D03*
D10*
X142170000Y-69660000D03*
D12*
X139630000Y-64580000D03*
X133280000Y-67120000D03*
%TD*%
D10*
%TO.C,SW3*%
X112970000Y-69660000D03*
D11*
X118050000Y-69660000D03*
D10*
X123130000Y-69660000D03*
D12*
X120590000Y-64580000D03*
X114240000Y-67120000D03*
%TD*%
D10*
%TO.C,SW10*%
X93930000Y-116780000D03*
D11*
X99010000Y-116780000D03*
D10*
X104090000Y-116780000D03*
D12*
X101550000Y-111700000D03*
X95200000Y-114240000D03*
%TD*%
D10*
%TO.C,SW16*%
X132010000Y-135820000D03*
D11*
X137090000Y-135820000D03*
D10*
X142170000Y-135820000D03*
D12*
X139630000Y-130740000D03*
X133280000Y-133280000D03*
%TD*%
D10*
%TO.C,SW6*%
X93930000Y-97740000D03*
D11*
X99010000Y-97740000D03*
D10*
X104090000Y-97740000D03*
D12*
X101550000Y-92660000D03*
X95200000Y-95200000D03*
%TD*%
D10*
%TO.C,SW19*%
X112970000Y-154860000D03*
D11*
X118050000Y-154860000D03*
D10*
X123130000Y-154860000D03*
D12*
X120590000Y-149780000D03*
X114240000Y-152320000D03*
%TD*%
D10*
%TO.C,SW15*%
X112970000Y-135820000D03*
D11*
X118050000Y-135820000D03*
D10*
X123130000Y-135820000D03*
D12*
X120590000Y-130740000D03*
X114240000Y-133280000D03*
%TD*%
D10*
%TO.C,SW7*%
X112970000Y-97740000D03*
D11*
X118050000Y-97740000D03*
D10*
X123130000Y-97740000D03*
D12*
X120590000Y-92660000D03*
X114240000Y-95200000D03*
%TD*%
D10*
%TO.C,SW18*%
X93930000Y-154860000D03*
D11*
X99010000Y-154860000D03*
D10*
X104090000Y-154860000D03*
D12*
X101550000Y-149780000D03*
X95200000Y-152320000D03*
%TD*%
D10*
%TO.C,SW14*%
X93930000Y-135820000D03*
D11*
X99010000Y-135820000D03*
D10*
X104090000Y-135820000D03*
D12*
X101550000Y-130740000D03*
X95200000Y-133280000D03*
%TD*%
D10*
%TO.C,SW20*%
X137090000Y-169460000D03*
D11*
X137090000Y-164380000D03*
D10*
X137090000Y-159300000D03*
D12*
X132010000Y-161840000D03*
X134550000Y-168190000D03*
%TD*%
D10*
%TO.C,SW11*%
X112970000Y-116780000D03*
D11*
X118050000Y-116780000D03*
D10*
X123130000Y-116780000D03*
D12*
X120590000Y-111700000D03*
X114240000Y-114240000D03*
%TD*%
D10*
%TO.C,SW1*%
X74890000Y-69660000D03*
D11*
X79970000Y-69660000D03*
D10*
X85050000Y-69660000D03*
D12*
X82510000Y-64580000D03*
X76160000Y-67120000D03*
%TD*%
D10*
%TO.C,SW12*%
X132010000Y-116780000D03*
D11*
X137090000Y-116780000D03*
D10*
X142170000Y-116780000D03*
D12*
X139630000Y-111700000D03*
X133280000Y-114240000D03*
%TD*%
D10*
%TO.C,SW23*%
X112970000Y-173900000D03*
D11*
X118050000Y-173900000D03*
D10*
X123130000Y-173900000D03*
D12*
X120590000Y-168820000D03*
X114240000Y-171360000D03*
%TD*%
D10*
%TO.C,SW5*%
X74890000Y-97740000D03*
D11*
X79970000Y-97740000D03*
D10*
X85050000Y-97740000D03*
D12*
X82510000Y-92660000D03*
X76160000Y-95200000D03*
%TD*%
D10*
%TO.C,SW9*%
X74890000Y-116780000D03*
D11*
X79970000Y-116780000D03*
D10*
X85050000Y-116780000D03*
D12*
X82510000Y-111700000D03*
X76160000Y-114240000D03*
%TD*%
D10*
%TO.C,SW21*%
X74890000Y-173900000D03*
D11*
X79970000Y-173900000D03*
D10*
X85050000Y-173900000D03*
D12*
X82510000Y-168820000D03*
X76160000Y-171360000D03*
%TD*%
D13*
%TO.C,D17*%
X72000000Y-159940000D03*
D14*
X72000000Y-152320000D03*
%TD*%
D15*
%TO.C,J2*%
X144780000Y-60340000D03*
D16*
X142240000Y-60340000D03*
X139700000Y-60340000D03*
X137160000Y-60340000D03*
X134620000Y-60340000D03*
X132080000Y-60340000D03*
X129540000Y-60340000D03*
X127000000Y-60340000D03*
X124460000Y-60340000D03*
X121920000Y-60340000D03*
X119380000Y-60340000D03*
X116840000Y-60340000D03*
X114300000Y-60340000D03*
X111760000Y-60340000D03*
X109220000Y-60340000D03*
X106680000Y-60340000D03*
X104140000Y-60340000D03*
%TD*%
D13*
%TO.C,D21*%
X72000000Y-178980000D03*
D14*
X72000000Y-171360000D03*
%TD*%
D13*
%TO.C,D18*%
X91160000Y-159940000D03*
D14*
X91160000Y-152320000D03*
%TD*%
D13*
%TO.C,D1*%
X72000000Y-73740000D03*
D14*
X72000000Y-66120000D03*
%TD*%
D13*
%TO.C,D15*%
X110200000Y-140900000D03*
D14*
X110200000Y-133280000D03*
%TD*%
D13*
%TO.C,D2*%
X91160000Y-73740000D03*
D14*
X91160000Y-66120000D03*
%TD*%
D13*
%TO.C,D13*%
X72000000Y-140900000D03*
D14*
X72000000Y-133280000D03*
%TD*%
D13*
%TO.C,D8*%
X129240000Y-102820000D03*
D14*
X129240000Y-95200000D03*
%TD*%
D13*
%TO.C,D5*%
X72000000Y-102820000D03*
D14*
X72000000Y-95200000D03*
%TD*%
D13*
%TO.C,D7*%
X110200000Y-102820000D03*
D14*
X110200000Y-95200000D03*
%TD*%
D13*
%TO.C,D12*%
X129240000Y-121860000D03*
D14*
X129240000Y-114240000D03*
%TD*%
D13*
%TO.C,D11*%
X110200000Y-121860000D03*
D14*
X110200000Y-114240000D03*
%TD*%
D13*
%TO.C,D22*%
X91160000Y-178980000D03*
D14*
X91160000Y-171360000D03*
%TD*%
D13*
%TO.C,D16*%
X129240000Y-140900000D03*
D14*
X129240000Y-133280000D03*
%TD*%
D13*
%TO.C,D9*%
X72000000Y-121860000D03*
D14*
X72000000Y-114240000D03*
%TD*%
D13*
%TO.C,D6*%
X91160000Y-102820000D03*
D14*
X91160000Y-95200000D03*
%TD*%
D13*
%TO.C,D23*%
X110200000Y-178980000D03*
D14*
X110200000Y-171360000D03*
%TD*%
D15*
%TO.C,J1*%
X144780000Y-78580000D03*
D16*
X142240000Y-78580000D03*
X139700000Y-78580000D03*
X137160000Y-78580000D03*
X134620000Y-78580000D03*
X132080000Y-78580000D03*
X129540000Y-78580000D03*
X127000000Y-78580000D03*
X124460000Y-78580000D03*
X121920000Y-78580000D03*
X119380000Y-78580000D03*
X116840000Y-78580000D03*
X114300000Y-78580000D03*
X111760000Y-78580000D03*
X109220000Y-78580000D03*
X106680000Y-78580000D03*
X104140000Y-78580000D03*
%TD*%
D13*
%TO.C,D10*%
X91160000Y-121860000D03*
D14*
X91160000Y-114240000D03*
%TD*%
D13*
%TO.C,D14*%
X91160000Y-140900000D03*
D14*
X91160000Y-133280000D03*
%TD*%
D13*
%TO.C,D19*%
X110200000Y-159940000D03*
D14*
X110200000Y-152320000D03*
%TD*%
D13*
%TO.C,D20*%
X129480000Y-160000000D03*
D14*
X129480000Y-167620000D03*
%TD*%
D13*
%TO.C,D3*%
X110200000Y-73740000D03*
D14*
X110200000Y-66120000D03*
%TD*%
D13*
%TO.C,D4*%
X129240000Y-73740000D03*
D14*
X129240000Y-66120000D03*
%TD*%
M02*
