M48
; DRILL file {KiCad 7.0.2} date Thu Sep 28 02:32:08 2023
; FORMAT={-:-/ absolute / inch / decimal}
; #@! TF.CreationDate,2023-09-28T02:32:08+09:00
; #@! TF.GenerationSoftware,Kicad,Pcbnew,7.0.2
; #@! TF.FileFunction,NonPlated,1,2,NPTH
FMAT,2
INCH
; #@! TA.AperFunction,NonPlated,NPTH,ComponentDrill
T1C0.0669
; #@! TA.AperFunction,NonPlated,NPTH,ComponentDrill
T2C0.1575
%
G90
G05
T1
X2.9484Y-2.7425
X2.9484Y-3.848
X2.9484Y-4.5976
X2.9484Y-5.3472
X2.9484Y-6.0969
X2.9484Y-6.8465
X3.3484Y-2.7425
X3.3484Y-3.848
X3.3484Y-4.5976
X3.3484Y-5.3472
X3.3484Y-6.0969
X3.3484Y-6.8465
X3.698Y-2.7425
X3.698Y-3.848
X3.698Y-4.5976
X3.698Y-5.3472
X3.698Y-6.0969
X3.698Y-6.8465
X4.098Y-2.7425
X4.098Y-3.848
X4.098Y-4.5976
X4.098Y-5.3472
X4.098Y-6.0969
X4.098Y-6.8465
X4.4476Y-2.7425
X4.4476Y-3.848
X4.4476Y-4.5976
X4.4476Y-5.3472
X4.4476Y-6.0969
X4.4476Y-6.8465
X4.8476Y-2.7425
X4.8476Y-3.848
X4.8476Y-4.5976
X4.8476Y-5.3472
X4.8476Y-6.0969
X4.8476Y-6.8465
X5.1972Y-2.7425
X5.1972Y-3.848
X5.1972Y-4.5976
X5.1972Y-5.3472
X5.3972Y-6.2717
X5.3972Y-6.6717
X5.5972Y-2.7425
X5.5972Y-3.848
X5.5972Y-4.5976
X5.5972Y-5.3472
T2
X3.1484Y-2.7425
X3.1484Y-3.848
X3.1484Y-4.5976
X3.1484Y-5.3472
X3.1484Y-6.0969
X3.1484Y-6.8465
X3.898Y-2.7425
X3.898Y-3.848
X3.898Y-4.5976
X3.898Y-5.3472
X3.898Y-6.0969
X3.898Y-6.8465
X4.6476Y-2.7425
X4.6476Y-3.848
X4.6476Y-4.5976
X4.6476Y-5.3472
X4.6476Y-6.0969
X4.6476Y-6.8465
X5.3972Y-2.7425
X5.3972Y-3.848
X5.3972Y-4.5976
X5.3972Y-5.3472
X5.3972Y-6.4717
T0
M30
