%TF.GenerationSoftware,KiCad,Pcbnew,7.0.2*%
%TF.CreationDate,2023-09-28T02:32:06+09:00*%
%TF.ProjectId,HT-Keys-TK_PCB,48542d4b-6579-4732-9d54-4b5f5043422e,rev?*%
%TF.SameCoordinates,Original*%
%TF.FileFunction,Legend,Top*%
%TF.FilePolarity,Positive*%
%FSLAX46Y46*%
G04 Gerber Fmt 4.6, Leading zero omitted, Abs format (unit mm)*
G04 Created by KiCad (PCBNEW 7.0.2) date 2023-09-28 02:32:06*
%MOMM*%
%LPD*%
G01*
G04 APERTURE LIST*
%ADD10C,0.150000*%
%ADD11C,0.120000*%
G04 APERTURE END LIST*
D10*
%TO.C,SW13*%
X78160476Y-140695000D02*
X78303333Y-140742619D01*
X78303333Y-140742619D02*
X78541428Y-140742619D01*
X78541428Y-140742619D02*
X78636666Y-140695000D01*
X78636666Y-140695000D02*
X78684285Y-140647380D01*
X78684285Y-140647380D02*
X78731904Y-140552142D01*
X78731904Y-140552142D02*
X78731904Y-140456904D01*
X78731904Y-140456904D02*
X78684285Y-140361666D01*
X78684285Y-140361666D02*
X78636666Y-140314047D01*
X78636666Y-140314047D02*
X78541428Y-140266428D01*
X78541428Y-140266428D02*
X78350952Y-140218809D01*
X78350952Y-140218809D02*
X78255714Y-140171190D01*
X78255714Y-140171190D02*
X78208095Y-140123571D01*
X78208095Y-140123571D02*
X78160476Y-140028333D01*
X78160476Y-140028333D02*
X78160476Y-139933095D01*
X78160476Y-139933095D02*
X78208095Y-139837857D01*
X78208095Y-139837857D02*
X78255714Y-139790238D01*
X78255714Y-139790238D02*
X78350952Y-139742619D01*
X78350952Y-139742619D02*
X78589047Y-139742619D01*
X78589047Y-139742619D02*
X78731904Y-139790238D01*
X79065238Y-139742619D02*
X79303333Y-140742619D01*
X79303333Y-140742619D02*
X79493809Y-140028333D01*
X79493809Y-140028333D02*
X79684285Y-140742619D01*
X79684285Y-140742619D02*
X79922381Y-139742619D01*
X80827142Y-140742619D02*
X80255714Y-140742619D01*
X80541428Y-140742619D02*
X80541428Y-139742619D01*
X80541428Y-139742619D02*
X80446190Y-139885476D01*
X80446190Y-139885476D02*
X80350952Y-139980714D01*
X80350952Y-139980714D02*
X80255714Y-140028333D01*
X81160476Y-139742619D02*
X81779523Y-139742619D01*
X81779523Y-139742619D02*
X81446190Y-140123571D01*
X81446190Y-140123571D02*
X81589047Y-140123571D01*
X81589047Y-140123571D02*
X81684285Y-140171190D01*
X81684285Y-140171190D02*
X81731904Y-140218809D01*
X81731904Y-140218809D02*
X81779523Y-140314047D01*
X81779523Y-140314047D02*
X81779523Y-140552142D01*
X81779523Y-140552142D02*
X81731904Y-140647380D01*
X81731904Y-140647380D02*
X81684285Y-140695000D01*
X81684285Y-140695000D02*
X81589047Y-140742619D01*
X81589047Y-140742619D02*
X81303333Y-140742619D01*
X81303333Y-140742619D02*
X81208095Y-140695000D01*
X81208095Y-140695000D02*
X81160476Y-140647380D01*
%TO.C,SW8*%
X135756667Y-102615000D02*
X135899524Y-102662619D01*
X135899524Y-102662619D02*
X136137619Y-102662619D01*
X136137619Y-102662619D02*
X136232857Y-102615000D01*
X136232857Y-102615000D02*
X136280476Y-102567380D01*
X136280476Y-102567380D02*
X136328095Y-102472142D01*
X136328095Y-102472142D02*
X136328095Y-102376904D01*
X136328095Y-102376904D02*
X136280476Y-102281666D01*
X136280476Y-102281666D02*
X136232857Y-102234047D01*
X136232857Y-102234047D02*
X136137619Y-102186428D01*
X136137619Y-102186428D02*
X135947143Y-102138809D01*
X135947143Y-102138809D02*
X135851905Y-102091190D01*
X135851905Y-102091190D02*
X135804286Y-102043571D01*
X135804286Y-102043571D02*
X135756667Y-101948333D01*
X135756667Y-101948333D02*
X135756667Y-101853095D01*
X135756667Y-101853095D02*
X135804286Y-101757857D01*
X135804286Y-101757857D02*
X135851905Y-101710238D01*
X135851905Y-101710238D02*
X135947143Y-101662619D01*
X135947143Y-101662619D02*
X136185238Y-101662619D01*
X136185238Y-101662619D02*
X136328095Y-101710238D01*
X136661429Y-101662619D02*
X136899524Y-102662619D01*
X136899524Y-102662619D02*
X137090000Y-101948333D01*
X137090000Y-101948333D02*
X137280476Y-102662619D01*
X137280476Y-102662619D02*
X137518572Y-101662619D01*
X138042381Y-102091190D02*
X137947143Y-102043571D01*
X137947143Y-102043571D02*
X137899524Y-101995952D01*
X137899524Y-101995952D02*
X137851905Y-101900714D01*
X137851905Y-101900714D02*
X137851905Y-101853095D01*
X137851905Y-101853095D02*
X137899524Y-101757857D01*
X137899524Y-101757857D02*
X137947143Y-101710238D01*
X137947143Y-101710238D02*
X138042381Y-101662619D01*
X138042381Y-101662619D02*
X138232857Y-101662619D01*
X138232857Y-101662619D02*
X138328095Y-101710238D01*
X138328095Y-101710238D02*
X138375714Y-101757857D01*
X138375714Y-101757857D02*
X138423333Y-101853095D01*
X138423333Y-101853095D02*
X138423333Y-101900714D01*
X138423333Y-101900714D02*
X138375714Y-101995952D01*
X138375714Y-101995952D02*
X138328095Y-102043571D01*
X138328095Y-102043571D02*
X138232857Y-102091190D01*
X138232857Y-102091190D02*
X138042381Y-102091190D01*
X138042381Y-102091190D02*
X137947143Y-102138809D01*
X137947143Y-102138809D02*
X137899524Y-102186428D01*
X137899524Y-102186428D02*
X137851905Y-102281666D01*
X137851905Y-102281666D02*
X137851905Y-102472142D01*
X137851905Y-102472142D02*
X137899524Y-102567380D01*
X137899524Y-102567380D02*
X137947143Y-102615000D01*
X137947143Y-102615000D02*
X138042381Y-102662619D01*
X138042381Y-102662619D02*
X138232857Y-102662619D01*
X138232857Y-102662619D02*
X138328095Y-102615000D01*
X138328095Y-102615000D02*
X138375714Y-102567380D01*
X138375714Y-102567380D02*
X138423333Y-102472142D01*
X138423333Y-102472142D02*
X138423333Y-102281666D01*
X138423333Y-102281666D02*
X138375714Y-102186428D01*
X138375714Y-102186428D02*
X138328095Y-102138809D01*
X138328095Y-102138809D02*
X138232857Y-102091190D01*
%TO.C,SW17*%
X78160476Y-159735000D02*
X78303333Y-159782619D01*
X78303333Y-159782619D02*
X78541428Y-159782619D01*
X78541428Y-159782619D02*
X78636666Y-159735000D01*
X78636666Y-159735000D02*
X78684285Y-159687380D01*
X78684285Y-159687380D02*
X78731904Y-159592142D01*
X78731904Y-159592142D02*
X78731904Y-159496904D01*
X78731904Y-159496904D02*
X78684285Y-159401666D01*
X78684285Y-159401666D02*
X78636666Y-159354047D01*
X78636666Y-159354047D02*
X78541428Y-159306428D01*
X78541428Y-159306428D02*
X78350952Y-159258809D01*
X78350952Y-159258809D02*
X78255714Y-159211190D01*
X78255714Y-159211190D02*
X78208095Y-159163571D01*
X78208095Y-159163571D02*
X78160476Y-159068333D01*
X78160476Y-159068333D02*
X78160476Y-158973095D01*
X78160476Y-158973095D02*
X78208095Y-158877857D01*
X78208095Y-158877857D02*
X78255714Y-158830238D01*
X78255714Y-158830238D02*
X78350952Y-158782619D01*
X78350952Y-158782619D02*
X78589047Y-158782619D01*
X78589047Y-158782619D02*
X78731904Y-158830238D01*
X79065238Y-158782619D02*
X79303333Y-159782619D01*
X79303333Y-159782619D02*
X79493809Y-159068333D01*
X79493809Y-159068333D02*
X79684285Y-159782619D01*
X79684285Y-159782619D02*
X79922381Y-158782619D01*
X80827142Y-159782619D02*
X80255714Y-159782619D01*
X80541428Y-159782619D02*
X80541428Y-158782619D01*
X80541428Y-158782619D02*
X80446190Y-158925476D01*
X80446190Y-158925476D02*
X80350952Y-159020714D01*
X80350952Y-159020714D02*
X80255714Y-159068333D01*
X81160476Y-158782619D02*
X81827142Y-158782619D01*
X81827142Y-158782619D02*
X81398571Y-159782619D01*
%TO.C,SW2*%
X97676667Y-74535000D02*
X97819524Y-74582619D01*
X97819524Y-74582619D02*
X98057619Y-74582619D01*
X98057619Y-74582619D02*
X98152857Y-74535000D01*
X98152857Y-74535000D02*
X98200476Y-74487380D01*
X98200476Y-74487380D02*
X98248095Y-74392142D01*
X98248095Y-74392142D02*
X98248095Y-74296904D01*
X98248095Y-74296904D02*
X98200476Y-74201666D01*
X98200476Y-74201666D02*
X98152857Y-74154047D01*
X98152857Y-74154047D02*
X98057619Y-74106428D01*
X98057619Y-74106428D02*
X97867143Y-74058809D01*
X97867143Y-74058809D02*
X97771905Y-74011190D01*
X97771905Y-74011190D02*
X97724286Y-73963571D01*
X97724286Y-73963571D02*
X97676667Y-73868333D01*
X97676667Y-73868333D02*
X97676667Y-73773095D01*
X97676667Y-73773095D02*
X97724286Y-73677857D01*
X97724286Y-73677857D02*
X97771905Y-73630238D01*
X97771905Y-73630238D02*
X97867143Y-73582619D01*
X97867143Y-73582619D02*
X98105238Y-73582619D01*
X98105238Y-73582619D02*
X98248095Y-73630238D01*
X98581429Y-73582619D02*
X98819524Y-74582619D01*
X98819524Y-74582619D02*
X99010000Y-73868333D01*
X99010000Y-73868333D02*
X99200476Y-74582619D01*
X99200476Y-74582619D02*
X99438572Y-73582619D01*
X99771905Y-73677857D02*
X99819524Y-73630238D01*
X99819524Y-73630238D02*
X99914762Y-73582619D01*
X99914762Y-73582619D02*
X100152857Y-73582619D01*
X100152857Y-73582619D02*
X100248095Y-73630238D01*
X100248095Y-73630238D02*
X100295714Y-73677857D01*
X100295714Y-73677857D02*
X100343333Y-73773095D01*
X100343333Y-73773095D02*
X100343333Y-73868333D01*
X100343333Y-73868333D02*
X100295714Y-74011190D01*
X100295714Y-74011190D02*
X99724286Y-74582619D01*
X99724286Y-74582619D02*
X100343333Y-74582619D01*
%TO.C,SW22*%
X97200476Y-178775000D02*
X97343333Y-178822619D01*
X97343333Y-178822619D02*
X97581428Y-178822619D01*
X97581428Y-178822619D02*
X97676666Y-178775000D01*
X97676666Y-178775000D02*
X97724285Y-178727380D01*
X97724285Y-178727380D02*
X97771904Y-178632142D01*
X97771904Y-178632142D02*
X97771904Y-178536904D01*
X97771904Y-178536904D02*
X97724285Y-178441666D01*
X97724285Y-178441666D02*
X97676666Y-178394047D01*
X97676666Y-178394047D02*
X97581428Y-178346428D01*
X97581428Y-178346428D02*
X97390952Y-178298809D01*
X97390952Y-178298809D02*
X97295714Y-178251190D01*
X97295714Y-178251190D02*
X97248095Y-178203571D01*
X97248095Y-178203571D02*
X97200476Y-178108333D01*
X97200476Y-178108333D02*
X97200476Y-178013095D01*
X97200476Y-178013095D02*
X97248095Y-177917857D01*
X97248095Y-177917857D02*
X97295714Y-177870238D01*
X97295714Y-177870238D02*
X97390952Y-177822619D01*
X97390952Y-177822619D02*
X97629047Y-177822619D01*
X97629047Y-177822619D02*
X97771904Y-177870238D01*
X98105238Y-177822619D02*
X98343333Y-178822619D01*
X98343333Y-178822619D02*
X98533809Y-178108333D01*
X98533809Y-178108333D02*
X98724285Y-178822619D01*
X98724285Y-178822619D02*
X98962381Y-177822619D01*
X99295714Y-177917857D02*
X99343333Y-177870238D01*
X99343333Y-177870238D02*
X99438571Y-177822619D01*
X99438571Y-177822619D02*
X99676666Y-177822619D01*
X99676666Y-177822619D02*
X99771904Y-177870238D01*
X99771904Y-177870238D02*
X99819523Y-177917857D01*
X99819523Y-177917857D02*
X99867142Y-178013095D01*
X99867142Y-178013095D02*
X99867142Y-178108333D01*
X99867142Y-178108333D02*
X99819523Y-178251190D01*
X99819523Y-178251190D02*
X99248095Y-178822619D01*
X99248095Y-178822619D02*
X99867142Y-178822619D01*
X100248095Y-177917857D02*
X100295714Y-177870238D01*
X100295714Y-177870238D02*
X100390952Y-177822619D01*
X100390952Y-177822619D02*
X100629047Y-177822619D01*
X100629047Y-177822619D02*
X100724285Y-177870238D01*
X100724285Y-177870238D02*
X100771904Y-177917857D01*
X100771904Y-177917857D02*
X100819523Y-178013095D01*
X100819523Y-178013095D02*
X100819523Y-178108333D01*
X100819523Y-178108333D02*
X100771904Y-178251190D01*
X100771904Y-178251190D02*
X100200476Y-178822619D01*
X100200476Y-178822619D02*
X100819523Y-178822619D01*
%TO.C,SW4*%
X135756667Y-74535000D02*
X135899524Y-74582619D01*
X135899524Y-74582619D02*
X136137619Y-74582619D01*
X136137619Y-74582619D02*
X136232857Y-74535000D01*
X136232857Y-74535000D02*
X136280476Y-74487380D01*
X136280476Y-74487380D02*
X136328095Y-74392142D01*
X136328095Y-74392142D02*
X136328095Y-74296904D01*
X136328095Y-74296904D02*
X136280476Y-74201666D01*
X136280476Y-74201666D02*
X136232857Y-74154047D01*
X136232857Y-74154047D02*
X136137619Y-74106428D01*
X136137619Y-74106428D02*
X135947143Y-74058809D01*
X135947143Y-74058809D02*
X135851905Y-74011190D01*
X135851905Y-74011190D02*
X135804286Y-73963571D01*
X135804286Y-73963571D02*
X135756667Y-73868333D01*
X135756667Y-73868333D02*
X135756667Y-73773095D01*
X135756667Y-73773095D02*
X135804286Y-73677857D01*
X135804286Y-73677857D02*
X135851905Y-73630238D01*
X135851905Y-73630238D02*
X135947143Y-73582619D01*
X135947143Y-73582619D02*
X136185238Y-73582619D01*
X136185238Y-73582619D02*
X136328095Y-73630238D01*
X136661429Y-73582619D02*
X136899524Y-74582619D01*
X136899524Y-74582619D02*
X137090000Y-73868333D01*
X137090000Y-73868333D02*
X137280476Y-74582619D01*
X137280476Y-74582619D02*
X137518572Y-73582619D01*
X138328095Y-73915952D02*
X138328095Y-74582619D01*
X138090000Y-73535000D02*
X137851905Y-74249285D01*
X137851905Y-74249285D02*
X138470952Y-74249285D01*
%TO.C,SW3*%
X116716667Y-74535000D02*
X116859524Y-74582619D01*
X116859524Y-74582619D02*
X117097619Y-74582619D01*
X117097619Y-74582619D02*
X117192857Y-74535000D01*
X117192857Y-74535000D02*
X117240476Y-74487380D01*
X117240476Y-74487380D02*
X117288095Y-74392142D01*
X117288095Y-74392142D02*
X117288095Y-74296904D01*
X117288095Y-74296904D02*
X117240476Y-74201666D01*
X117240476Y-74201666D02*
X117192857Y-74154047D01*
X117192857Y-74154047D02*
X117097619Y-74106428D01*
X117097619Y-74106428D02*
X116907143Y-74058809D01*
X116907143Y-74058809D02*
X116811905Y-74011190D01*
X116811905Y-74011190D02*
X116764286Y-73963571D01*
X116764286Y-73963571D02*
X116716667Y-73868333D01*
X116716667Y-73868333D02*
X116716667Y-73773095D01*
X116716667Y-73773095D02*
X116764286Y-73677857D01*
X116764286Y-73677857D02*
X116811905Y-73630238D01*
X116811905Y-73630238D02*
X116907143Y-73582619D01*
X116907143Y-73582619D02*
X117145238Y-73582619D01*
X117145238Y-73582619D02*
X117288095Y-73630238D01*
X117621429Y-73582619D02*
X117859524Y-74582619D01*
X117859524Y-74582619D02*
X118050000Y-73868333D01*
X118050000Y-73868333D02*
X118240476Y-74582619D01*
X118240476Y-74582619D02*
X118478572Y-73582619D01*
X118764286Y-73582619D02*
X119383333Y-73582619D01*
X119383333Y-73582619D02*
X119050000Y-73963571D01*
X119050000Y-73963571D02*
X119192857Y-73963571D01*
X119192857Y-73963571D02*
X119288095Y-74011190D01*
X119288095Y-74011190D02*
X119335714Y-74058809D01*
X119335714Y-74058809D02*
X119383333Y-74154047D01*
X119383333Y-74154047D02*
X119383333Y-74392142D01*
X119383333Y-74392142D02*
X119335714Y-74487380D01*
X119335714Y-74487380D02*
X119288095Y-74535000D01*
X119288095Y-74535000D02*
X119192857Y-74582619D01*
X119192857Y-74582619D02*
X118907143Y-74582619D01*
X118907143Y-74582619D02*
X118811905Y-74535000D01*
X118811905Y-74535000D02*
X118764286Y-74487380D01*
%TO.C,SW10*%
X97200476Y-121655000D02*
X97343333Y-121702619D01*
X97343333Y-121702619D02*
X97581428Y-121702619D01*
X97581428Y-121702619D02*
X97676666Y-121655000D01*
X97676666Y-121655000D02*
X97724285Y-121607380D01*
X97724285Y-121607380D02*
X97771904Y-121512142D01*
X97771904Y-121512142D02*
X97771904Y-121416904D01*
X97771904Y-121416904D02*
X97724285Y-121321666D01*
X97724285Y-121321666D02*
X97676666Y-121274047D01*
X97676666Y-121274047D02*
X97581428Y-121226428D01*
X97581428Y-121226428D02*
X97390952Y-121178809D01*
X97390952Y-121178809D02*
X97295714Y-121131190D01*
X97295714Y-121131190D02*
X97248095Y-121083571D01*
X97248095Y-121083571D02*
X97200476Y-120988333D01*
X97200476Y-120988333D02*
X97200476Y-120893095D01*
X97200476Y-120893095D02*
X97248095Y-120797857D01*
X97248095Y-120797857D02*
X97295714Y-120750238D01*
X97295714Y-120750238D02*
X97390952Y-120702619D01*
X97390952Y-120702619D02*
X97629047Y-120702619D01*
X97629047Y-120702619D02*
X97771904Y-120750238D01*
X98105238Y-120702619D02*
X98343333Y-121702619D01*
X98343333Y-121702619D02*
X98533809Y-120988333D01*
X98533809Y-120988333D02*
X98724285Y-121702619D01*
X98724285Y-121702619D02*
X98962381Y-120702619D01*
X99867142Y-121702619D02*
X99295714Y-121702619D01*
X99581428Y-121702619D02*
X99581428Y-120702619D01*
X99581428Y-120702619D02*
X99486190Y-120845476D01*
X99486190Y-120845476D02*
X99390952Y-120940714D01*
X99390952Y-120940714D02*
X99295714Y-120988333D01*
X100486190Y-120702619D02*
X100581428Y-120702619D01*
X100581428Y-120702619D02*
X100676666Y-120750238D01*
X100676666Y-120750238D02*
X100724285Y-120797857D01*
X100724285Y-120797857D02*
X100771904Y-120893095D01*
X100771904Y-120893095D02*
X100819523Y-121083571D01*
X100819523Y-121083571D02*
X100819523Y-121321666D01*
X100819523Y-121321666D02*
X100771904Y-121512142D01*
X100771904Y-121512142D02*
X100724285Y-121607380D01*
X100724285Y-121607380D02*
X100676666Y-121655000D01*
X100676666Y-121655000D02*
X100581428Y-121702619D01*
X100581428Y-121702619D02*
X100486190Y-121702619D01*
X100486190Y-121702619D02*
X100390952Y-121655000D01*
X100390952Y-121655000D02*
X100343333Y-121607380D01*
X100343333Y-121607380D02*
X100295714Y-121512142D01*
X100295714Y-121512142D02*
X100248095Y-121321666D01*
X100248095Y-121321666D02*
X100248095Y-121083571D01*
X100248095Y-121083571D02*
X100295714Y-120893095D01*
X100295714Y-120893095D02*
X100343333Y-120797857D01*
X100343333Y-120797857D02*
X100390952Y-120750238D01*
X100390952Y-120750238D02*
X100486190Y-120702619D01*
%TO.C,SW16*%
X135280476Y-140695000D02*
X135423333Y-140742619D01*
X135423333Y-140742619D02*
X135661428Y-140742619D01*
X135661428Y-140742619D02*
X135756666Y-140695000D01*
X135756666Y-140695000D02*
X135804285Y-140647380D01*
X135804285Y-140647380D02*
X135851904Y-140552142D01*
X135851904Y-140552142D02*
X135851904Y-140456904D01*
X135851904Y-140456904D02*
X135804285Y-140361666D01*
X135804285Y-140361666D02*
X135756666Y-140314047D01*
X135756666Y-140314047D02*
X135661428Y-140266428D01*
X135661428Y-140266428D02*
X135470952Y-140218809D01*
X135470952Y-140218809D02*
X135375714Y-140171190D01*
X135375714Y-140171190D02*
X135328095Y-140123571D01*
X135328095Y-140123571D02*
X135280476Y-140028333D01*
X135280476Y-140028333D02*
X135280476Y-139933095D01*
X135280476Y-139933095D02*
X135328095Y-139837857D01*
X135328095Y-139837857D02*
X135375714Y-139790238D01*
X135375714Y-139790238D02*
X135470952Y-139742619D01*
X135470952Y-139742619D02*
X135709047Y-139742619D01*
X135709047Y-139742619D02*
X135851904Y-139790238D01*
X136185238Y-139742619D02*
X136423333Y-140742619D01*
X136423333Y-140742619D02*
X136613809Y-140028333D01*
X136613809Y-140028333D02*
X136804285Y-140742619D01*
X136804285Y-140742619D02*
X137042381Y-139742619D01*
X137947142Y-140742619D02*
X137375714Y-140742619D01*
X137661428Y-140742619D02*
X137661428Y-139742619D01*
X137661428Y-139742619D02*
X137566190Y-139885476D01*
X137566190Y-139885476D02*
X137470952Y-139980714D01*
X137470952Y-139980714D02*
X137375714Y-140028333D01*
X138804285Y-139742619D02*
X138613809Y-139742619D01*
X138613809Y-139742619D02*
X138518571Y-139790238D01*
X138518571Y-139790238D02*
X138470952Y-139837857D01*
X138470952Y-139837857D02*
X138375714Y-139980714D01*
X138375714Y-139980714D02*
X138328095Y-140171190D01*
X138328095Y-140171190D02*
X138328095Y-140552142D01*
X138328095Y-140552142D02*
X138375714Y-140647380D01*
X138375714Y-140647380D02*
X138423333Y-140695000D01*
X138423333Y-140695000D02*
X138518571Y-140742619D01*
X138518571Y-140742619D02*
X138709047Y-140742619D01*
X138709047Y-140742619D02*
X138804285Y-140695000D01*
X138804285Y-140695000D02*
X138851904Y-140647380D01*
X138851904Y-140647380D02*
X138899523Y-140552142D01*
X138899523Y-140552142D02*
X138899523Y-140314047D01*
X138899523Y-140314047D02*
X138851904Y-140218809D01*
X138851904Y-140218809D02*
X138804285Y-140171190D01*
X138804285Y-140171190D02*
X138709047Y-140123571D01*
X138709047Y-140123571D02*
X138518571Y-140123571D01*
X138518571Y-140123571D02*
X138423333Y-140171190D01*
X138423333Y-140171190D02*
X138375714Y-140218809D01*
X138375714Y-140218809D02*
X138328095Y-140314047D01*
%TO.C,SW6*%
X97676667Y-102615000D02*
X97819524Y-102662619D01*
X97819524Y-102662619D02*
X98057619Y-102662619D01*
X98057619Y-102662619D02*
X98152857Y-102615000D01*
X98152857Y-102615000D02*
X98200476Y-102567380D01*
X98200476Y-102567380D02*
X98248095Y-102472142D01*
X98248095Y-102472142D02*
X98248095Y-102376904D01*
X98248095Y-102376904D02*
X98200476Y-102281666D01*
X98200476Y-102281666D02*
X98152857Y-102234047D01*
X98152857Y-102234047D02*
X98057619Y-102186428D01*
X98057619Y-102186428D02*
X97867143Y-102138809D01*
X97867143Y-102138809D02*
X97771905Y-102091190D01*
X97771905Y-102091190D02*
X97724286Y-102043571D01*
X97724286Y-102043571D02*
X97676667Y-101948333D01*
X97676667Y-101948333D02*
X97676667Y-101853095D01*
X97676667Y-101853095D02*
X97724286Y-101757857D01*
X97724286Y-101757857D02*
X97771905Y-101710238D01*
X97771905Y-101710238D02*
X97867143Y-101662619D01*
X97867143Y-101662619D02*
X98105238Y-101662619D01*
X98105238Y-101662619D02*
X98248095Y-101710238D01*
X98581429Y-101662619D02*
X98819524Y-102662619D01*
X98819524Y-102662619D02*
X99010000Y-101948333D01*
X99010000Y-101948333D02*
X99200476Y-102662619D01*
X99200476Y-102662619D02*
X99438572Y-101662619D01*
X100248095Y-101662619D02*
X100057619Y-101662619D01*
X100057619Y-101662619D02*
X99962381Y-101710238D01*
X99962381Y-101710238D02*
X99914762Y-101757857D01*
X99914762Y-101757857D02*
X99819524Y-101900714D01*
X99819524Y-101900714D02*
X99771905Y-102091190D01*
X99771905Y-102091190D02*
X99771905Y-102472142D01*
X99771905Y-102472142D02*
X99819524Y-102567380D01*
X99819524Y-102567380D02*
X99867143Y-102615000D01*
X99867143Y-102615000D02*
X99962381Y-102662619D01*
X99962381Y-102662619D02*
X100152857Y-102662619D01*
X100152857Y-102662619D02*
X100248095Y-102615000D01*
X100248095Y-102615000D02*
X100295714Y-102567380D01*
X100295714Y-102567380D02*
X100343333Y-102472142D01*
X100343333Y-102472142D02*
X100343333Y-102234047D01*
X100343333Y-102234047D02*
X100295714Y-102138809D01*
X100295714Y-102138809D02*
X100248095Y-102091190D01*
X100248095Y-102091190D02*
X100152857Y-102043571D01*
X100152857Y-102043571D02*
X99962381Y-102043571D01*
X99962381Y-102043571D02*
X99867143Y-102091190D01*
X99867143Y-102091190D02*
X99819524Y-102138809D01*
X99819524Y-102138809D02*
X99771905Y-102234047D01*
%TO.C,SW19*%
X116240476Y-159735000D02*
X116383333Y-159782619D01*
X116383333Y-159782619D02*
X116621428Y-159782619D01*
X116621428Y-159782619D02*
X116716666Y-159735000D01*
X116716666Y-159735000D02*
X116764285Y-159687380D01*
X116764285Y-159687380D02*
X116811904Y-159592142D01*
X116811904Y-159592142D02*
X116811904Y-159496904D01*
X116811904Y-159496904D02*
X116764285Y-159401666D01*
X116764285Y-159401666D02*
X116716666Y-159354047D01*
X116716666Y-159354047D02*
X116621428Y-159306428D01*
X116621428Y-159306428D02*
X116430952Y-159258809D01*
X116430952Y-159258809D02*
X116335714Y-159211190D01*
X116335714Y-159211190D02*
X116288095Y-159163571D01*
X116288095Y-159163571D02*
X116240476Y-159068333D01*
X116240476Y-159068333D02*
X116240476Y-158973095D01*
X116240476Y-158973095D02*
X116288095Y-158877857D01*
X116288095Y-158877857D02*
X116335714Y-158830238D01*
X116335714Y-158830238D02*
X116430952Y-158782619D01*
X116430952Y-158782619D02*
X116669047Y-158782619D01*
X116669047Y-158782619D02*
X116811904Y-158830238D01*
X117145238Y-158782619D02*
X117383333Y-159782619D01*
X117383333Y-159782619D02*
X117573809Y-159068333D01*
X117573809Y-159068333D02*
X117764285Y-159782619D01*
X117764285Y-159782619D02*
X118002381Y-158782619D01*
X118907142Y-159782619D02*
X118335714Y-159782619D01*
X118621428Y-159782619D02*
X118621428Y-158782619D01*
X118621428Y-158782619D02*
X118526190Y-158925476D01*
X118526190Y-158925476D02*
X118430952Y-159020714D01*
X118430952Y-159020714D02*
X118335714Y-159068333D01*
X119383333Y-159782619D02*
X119573809Y-159782619D01*
X119573809Y-159782619D02*
X119669047Y-159735000D01*
X119669047Y-159735000D02*
X119716666Y-159687380D01*
X119716666Y-159687380D02*
X119811904Y-159544523D01*
X119811904Y-159544523D02*
X119859523Y-159354047D01*
X119859523Y-159354047D02*
X119859523Y-158973095D01*
X119859523Y-158973095D02*
X119811904Y-158877857D01*
X119811904Y-158877857D02*
X119764285Y-158830238D01*
X119764285Y-158830238D02*
X119669047Y-158782619D01*
X119669047Y-158782619D02*
X119478571Y-158782619D01*
X119478571Y-158782619D02*
X119383333Y-158830238D01*
X119383333Y-158830238D02*
X119335714Y-158877857D01*
X119335714Y-158877857D02*
X119288095Y-158973095D01*
X119288095Y-158973095D02*
X119288095Y-159211190D01*
X119288095Y-159211190D02*
X119335714Y-159306428D01*
X119335714Y-159306428D02*
X119383333Y-159354047D01*
X119383333Y-159354047D02*
X119478571Y-159401666D01*
X119478571Y-159401666D02*
X119669047Y-159401666D01*
X119669047Y-159401666D02*
X119764285Y-159354047D01*
X119764285Y-159354047D02*
X119811904Y-159306428D01*
X119811904Y-159306428D02*
X119859523Y-159211190D01*
%TO.C,SW15*%
X116240476Y-140695000D02*
X116383333Y-140742619D01*
X116383333Y-140742619D02*
X116621428Y-140742619D01*
X116621428Y-140742619D02*
X116716666Y-140695000D01*
X116716666Y-140695000D02*
X116764285Y-140647380D01*
X116764285Y-140647380D02*
X116811904Y-140552142D01*
X116811904Y-140552142D02*
X116811904Y-140456904D01*
X116811904Y-140456904D02*
X116764285Y-140361666D01*
X116764285Y-140361666D02*
X116716666Y-140314047D01*
X116716666Y-140314047D02*
X116621428Y-140266428D01*
X116621428Y-140266428D02*
X116430952Y-140218809D01*
X116430952Y-140218809D02*
X116335714Y-140171190D01*
X116335714Y-140171190D02*
X116288095Y-140123571D01*
X116288095Y-140123571D02*
X116240476Y-140028333D01*
X116240476Y-140028333D02*
X116240476Y-139933095D01*
X116240476Y-139933095D02*
X116288095Y-139837857D01*
X116288095Y-139837857D02*
X116335714Y-139790238D01*
X116335714Y-139790238D02*
X116430952Y-139742619D01*
X116430952Y-139742619D02*
X116669047Y-139742619D01*
X116669047Y-139742619D02*
X116811904Y-139790238D01*
X117145238Y-139742619D02*
X117383333Y-140742619D01*
X117383333Y-140742619D02*
X117573809Y-140028333D01*
X117573809Y-140028333D02*
X117764285Y-140742619D01*
X117764285Y-140742619D02*
X118002381Y-139742619D01*
X118907142Y-140742619D02*
X118335714Y-140742619D01*
X118621428Y-140742619D02*
X118621428Y-139742619D01*
X118621428Y-139742619D02*
X118526190Y-139885476D01*
X118526190Y-139885476D02*
X118430952Y-139980714D01*
X118430952Y-139980714D02*
X118335714Y-140028333D01*
X119811904Y-139742619D02*
X119335714Y-139742619D01*
X119335714Y-139742619D02*
X119288095Y-140218809D01*
X119288095Y-140218809D02*
X119335714Y-140171190D01*
X119335714Y-140171190D02*
X119430952Y-140123571D01*
X119430952Y-140123571D02*
X119669047Y-140123571D01*
X119669047Y-140123571D02*
X119764285Y-140171190D01*
X119764285Y-140171190D02*
X119811904Y-140218809D01*
X119811904Y-140218809D02*
X119859523Y-140314047D01*
X119859523Y-140314047D02*
X119859523Y-140552142D01*
X119859523Y-140552142D02*
X119811904Y-140647380D01*
X119811904Y-140647380D02*
X119764285Y-140695000D01*
X119764285Y-140695000D02*
X119669047Y-140742619D01*
X119669047Y-140742619D02*
X119430952Y-140742619D01*
X119430952Y-140742619D02*
X119335714Y-140695000D01*
X119335714Y-140695000D02*
X119288095Y-140647380D01*
%TO.C,SW7*%
X116716667Y-102615000D02*
X116859524Y-102662619D01*
X116859524Y-102662619D02*
X117097619Y-102662619D01*
X117097619Y-102662619D02*
X117192857Y-102615000D01*
X117192857Y-102615000D02*
X117240476Y-102567380D01*
X117240476Y-102567380D02*
X117288095Y-102472142D01*
X117288095Y-102472142D02*
X117288095Y-102376904D01*
X117288095Y-102376904D02*
X117240476Y-102281666D01*
X117240476Y-102281666D02*
X117192857Y-102234047D01*
X117192857Y-102234047D02*
X117097619Y-102186428D01*
X117097619Y-102186428D02*
X116907143Y-102138809D01*
X116907143Y-102138809D02*
X116811905Y-102091190D01*
X116811905Y-102091190D02*
X116764286Y-102043571D01*
X116764286Y-102043571D02*
X116716667Y-101948333D01*
X116716667Y-101948333D02*
X116716667Y-101853095D01*
X116716667Y-101853095D02*
X116764286Y-101757857D01*
X116764286Y-101757857D02*
X116811905Y-101710238D01*
X116811905Y-101710238D02*
X116907143Y-101662619D01*
X116907143Y-101662619D02*
X117145238Y-101662619D01*
X117145238Y-101662619D02*
X117288095Y-101710238D01*
X117621429Y-101662619D02*
X117859524Y-102662619D01*
X117859524Y-102662619D02*
X118050000Y-101948333D01*
X118050000Y-101948333D02*
X118240476Y-102662619D01*
X118240476Y-102662619D02*
X118478572Y-101662619D01*
X118764286Y-101662619D02*
X119430952Y-101662619D01*
X119430952Y-101662619D02*
X119002381Y-102662619D01*
%TO.C,SW18*%
X97200476Y-159735000D02*
X97343333Y-159782619D01*
X97343333Y-159782619D02*
X97581428Y-159782619D01*
X97581428Y-159782619D02*
X97676666Y-159735000D01*
X97676666Y-159735000D02*
X97724285Y-159687380D01*
X97724285Y-159687380D02*
X97771904Y-159592142D01*
X97771904Y-159592142D02*
X97771904Y-159496904D01*
X97771904Y-159496904D02*
X97724285Y-159401666D01*
X97724285Y-159401666D02*
X97676666Y-159354047D01*
X97676666Y-159354047D02*
X97581428Y-159306428D01*
X97581428Y-159306428D02*
X97390952Y-159258809D01*
X97390952Y-159258809D02*
X97295714Y-159211190D01*
X97295714Y-159211190D02*
X97248095Y-159163571D01*
X97248095Y-159163571D02*
X97200476Y-159068333D01*
X97200476Y-159068333D02*
X97200476Y-158973095D01*
X97200476Y-158973095D02*
X97248095Y-158877857D01*
X97248095Y-158877857D02*
X97295714Y-158830238D01*
X97295714Y-158830238D02*
X97390952Y-158782619D01*
X97390952Y-158782619D02*
X97629047Y-158782619D01*
X97629047Y-158782619D02*
X97771904Y-158830238D01*
X98105238Y-158782619D02*
X98343333Y-159782619D01*
X98343333Y-159782619D02*
X98533809Y-159068333D01*
X98533809Y-159068333D02*
X98724285Y-159782619D01*
X98724285Y-159782619D02*
X98962381Y-158782619D01*
X99867142Y-159782619D02*
X99295714Y-159782619D01*
X99581428Y-159782619D02*
X99581428Y-158782619D01*
X99581428Y-158782619D02*
X99486190Y-158925476D01*
X99486190Y-158925476D02*
X99390952Y-159020714D01*
X99390952Y-159020714D02*
X99295714Y-159068333D01*
X100438571Y-159211190D02*
X100343333Y-159163571D01*
X100343333Y-159163571D02*
X100295714Y-159115952D01*
X100295714Y-159115952D02*
X100248095Y-159020714D01*
X100248095Y-159020714D02*
X100248095Y-158973095D01*
X100248095Y-158973095D02*
X100295714Y-158877857D01*
X100295714Y-158877857D02*
X100343333Y-158830238D01*
X100343333Y-158830238D02*
X100438571Y-158782619D01*
X100438571Y-158782619D02*
X100629047Y-158782619D01*
X100629047Y-158782619D02*
X100724285Y-158830238D01*
X100724285Y-158830238D02*
X100771904Y-158877857D01*
X100771904Y-158877857D02*
X100819523Y-158973095D01*
X100819523Y-158973095D02*
X100819523Y-159020714D01*
X100819523Y-159020714D02*
X100771904Y-159115952D01*
X100771904Y-159115952D02*
X100724285Y-159163571D01*
X100724285Y-159163571D02*
X100629047Y-159211190D01*
X100629047Y-159211190D02*
X100438571Y-159211190D01*
X100438571Y-159211190D02*
X100343333Y-159258809D01*
X100343333Y-159258809D02*
X100295714Y-159306428D01*
X100295714Y-159306428D02*
X100248095Y-159401666D01*
X100248095Y-159401666D02*
X100248095Y-159592142D01*
X100248095Y-159592142D02*
X100295714Y-159687380D01*
X100295714Y-159687380D02*
X100343333Y-159735000D01*
X100343333Y-159735000D02*
X100438571Y-159782619D01*
X100438571Y-159782619D02*
X100629047Y-159782619D01*
X100629047Y-159782619D02*
X100724285Y-159735000D01*
X100724285Y-159735000D02*
X100771904Y-159687380D01*
X100771904Y-159687380D02*
X100819523Y-159592142D01*
X100819523Y-159592142D02*
X100819523Y-159401666D01*
X100819523Y-159401666D02*
X100771904Y-159306428D01*
X100771904Y-159306428D02*
X100724285Y-159258809D01*
X100724285Y-159258809D02*
X100629047Y-159211190D01*
%TO.C,SW14*%
X97200476Y-140695000D02*
X97343333Y-140742619D01*
X97343333Y-140742619D02*
X97581428Y-140742619D01*
X97581428Y-140742619D02*
X97676666Y-140695000D01*
X97676666Y-140695000D02*
X97724285Y-140647380D01*
X97724285Y-140647380D02*
X97771904Y-140552142D01*
X97771904Y-140552142D02*
X97771904Y-140456904D01*
X97771904Y-140456904D02*
X97724285Y-140361666D01*
X97724285Y-140361666D02*
X97676666Y-140314047D01*
X97676666Y-140314047D02*
X97581428Y-140266428D01*
X97581428Y-140266428D02*
X97390952Y-140218809D01*
X97390952Y-140218809D02*
X97295714Y-140171190D01*
X97295714Y-140171190D02*
X97248095Y-140123571D01*
X97248095Y-140123571D02*
X97200476Y-140028333D01*
X97200476Y-140028333D02*
X97200476Y-139933095D01*
X97200476Y-139933095D02*
X97248095Y-139837857D01*
X97248095Y-139837857D02*
X97295714Y-139790238D01*
X97295714Y-139790238D02*
X97390952Y-139742619D01*
X97390952Y-139742619D02*
X97629047Y-139742619D01*
X97629047Y-139742619D02*
X97771904Y-139790238D01*
X98105238Y-139742619D02*
X98343333Y-140742619D01*
X98343333Y-140742619D02*
X98533809Y-140028333D01*
X98533809Y-140028333D02*
X98724285Y-140742619D01*
X98724285Y-140742619D02*
X98962381Y-139742619D01*
X99867142Y-140742619D02*
X99295714Y-140742619D01*
X99581428Y-140742619D02*
X99581428Y-139742619D01*
X99581428Y-139742619D02*
X99486190Y-139885476D01*
X99486190Y-139885476D02*
X99390952Y-139980714D01*
X99390952Y-139980714D02*
X99295714Y-140028333D01*
X100724285Y-140075952D02*
X100724285Y-140742619D01*
X100486190Y-139695000D02*
X100248095Y-140409285D01*
X100248095Y-140409285D02*
X100867142Y-140409285D01*
%TO.C,SW20*%
X141695000Y-166189523D02*
X141742619Y-166046666D01*
X141742619Y-166046666D02*
X141742619Y-165808571D01*
X141742619Y-165808571D02*
X141695000Y-165713333D01*
X141695000Y-165713333D02*
X141647380Y-165665714D01*
X141647380Y-165665714D02*
X141552142Y-165618095D01*
X141552142Y-165618095D02*
X141456904Y-165618095D01*
X141456904Y-165618095D02*
X141361666Y-165665714D01*
X141361666Y-165665714D02*
X141314047Y-165713333D01*
X141314047Y-165713333D02*
X141266428Y-165808571D01*
X141266428Y-165808571D02*
X141218809Y-165999047D01*
X141218809Y-165999047D02*
X141171190Y-166094285D01*
X141171190Y-166094285D02*
X141123571Y-166141904D01*
X141123571Y-166141904D02*
X141028333Y-166189523D01*
X141028333Y-166189523D02*
X140933095Y-166189523D01*
X140933095Y-166189523D02*
X140837857Y-166141904D01*
X140837857Y-166141904D02*
X140790238Y-166094285D01*
X140790238Y-166094285D02*
X140742619Y-165999047D01*
X140742619Y-165999047D02*
X140742619Y-165760952D01*
X140742619Y-165760952D02*
X140790238Y-165618095D01*
X140742619Y-165284761D02*
X141742619Y-165046666D01*
X141742619Y-165046666D02*
X141028333Y-164856190D01*
X141028333Y-164856190D02*
X141742619Y-164665714D01*
X141742619Y-164665714D02*
X140742619Y-164427619D01*
X140837857Y-164094285D02*
X140790238Y-164046666D01*
X140790238Y-164046666D02*
X140742619Y-163951428D01*
X140742619Y-163951428D02*
X140742619Y-163713333D01*
X140742619Y-163713333D02*
X140790238Y-163618095D01*
X140790238Y-163618095D02*
X140837857Y-163570476D01*
X140837857Y-163570476D02*
X140933095Y-163522857D01*
X140933095Y-163522857D02*
X141028333Y-163522857D01*
X141028333Y-163522857D02*
X141171190Y-163570476D01*
X141171190Y-163570476D02*
X141742619Y-164141904D01*
X141742619Y-164141904D02*
X141742619Y-163522857D01*
X140742619Y-162903809D02*
X140742619Y-162808571D01*
X140742619Y-162808571D02*
X140790238Y-162713333D01*
X140790238Y-162713333D02*
X140837857Y-162665714D01*
X140837857Y-162665714D02*
X140933095Y-162618095D01*
X140933095Y-162618095D02*
X141123571Y-162570476D01*
X141123571Y-162570476D02*
X141361666Y-162570476D01*
X141361666Y-162570476D02*
X141552142Y-162618095D01*
X141552142Y-162618095D02*
X141647380Y-162665714D01*
X141647380Y-162665714D02*
X141695000Y-162713333D01*
X141695000Y-162713333D02*
X141742619Y-162808571D01*
X141742619Y-162808571D02*
X141742619Y-162903809D01*
X141742619Y-162903809D02*
X141695000Y-162999047D01*
X141695000Y-162999047D02*
X141647380Y-163046666D01*
X141647380Y-163046666D02*
X141552142Y-163094285D01*
X141552142Y-163094285D02*
X141361666Y-163141904D01*
X141361666Y-163141904D02*
X141123571Y-163141904D01*
X141123571Y-163141904D02*
X140933095Y-163094285D01*
X140933095Y-163094285D02*
X140837857Y-163046666D01*
X140837857Y-163046666D02*
X140790238Y-162999047D01*
X140790238Y-162999047D02*
X140742619Y-162903809D01*
%TO.C,SW11*%
X116240476Y-121655000D02*
X116383333Y-121702619D01*
X116383333Y-121702619D02*
X116621428Y-121702619D01*
X116621428Y-121702619D02*
X116716666Y-121655000D01*
X116716666Y-121655000D02*
X116764285Y-121607380D01*
X116764285Y-121607380D02*
X116811904Y-121512142D01*
X116811904Y-121512142D02*
X116811904Y-121416904D01*
X116811904Y-121416904D02*
X116764285Y-121321666D01*
X116764285Y-121321666D02*
X116716666Y-121274047D01*
X116716666Y-121274047D02*
X116621428Y-121226428D01*
X116621428Y-121226428D02*
X116430952Y-121178809D01*
X116430952Y-121178809D02*
X116335714Y-121131190D01*
X116335714Y-121131190D02*
X116288095Y-121083571D01*
X116288095Y-121083571D02*
X116240476Y-120988333D01*
X116240476Y-120988333D02*
X116240476Y-120893095D01*
X116240476Y-120893095D02*
X116288095Y-120797857D01*
X116288095Y-120797857D02*
X116335714Y-120750238D01*
X116335714Y-120750238D02*
X116430952Y-120702619D01*
X116430952Y-120702619D02*
X116669047Y-120702619D01*
X116669047Y-120702619D02*
X116811904Y-120750238D01*
X117145238Y-120702619D02*
X117383333Y-121702619D01*
X117383333Y-121702619D02*
X117573809Y-120988333D01*
X117573809Y-120988333D02*
X117764285Y-121702619D01*
X117764285Y-121702619D02*
X118002381Y-120702619D01*
X118907142Y-121702619D02*
X118335714Y-121702619D01*
X118621428Y-121702619D02*
X118621428Y-120702619D01*
X118621428Y-120702619D02*
X118526190Y-120845476D01*
X118526190Y-120845476D02*
X118430952Y-120940714D01*
X118430952Y-120940714D02*
X118335714Y-120988333D01*
X119859523Y-121702619D02*
X119288095Y-121702619D01*
X119573809Y-121702619D02*
X119573809Y-120702619D01*
X119573809Y-120702619D02*
X119478571Y-120845476D01*
X119478571Y-120845476D02*
X119383333Y-120940714D01*
X119383333Y-120940714D02*
X119288095Y-120988333D01*
%TO.C,SW1*%
X78636667Y-74535000D02*
X78779524Y-74582619D01*
X78779524Y-74582619D02*
X79017619Y-74582619D01*
X79017619Y-74582619D02*
X79112857Y-74535000D01*
X79112857Y-74535000D02*
X79160476Y-74487380D01*
X79160476Y-74487380D02*
X79208095Y-74392142D01*
X79208095Y-74392142D02*
X79208095Y-74296904D01*
X79208095Y-74296904D02*
X79160476Y-74201666D01*
X79160476Y-74201666D02*
X79112857Y-74154047D01*
X79112857Y-74154047D02*
X79017619Y-74106428D01*
X79017619Y-74106428D02*
X78827143Y-74058809D01*
X78827143Y-74058809D02*
X78731905Y-74011190D01*
X78731905Y-74011190D02*
X78684286Y-73963571D01*
X78684286Y-73963571D02*
X78636667Y-73868333D01*
X78636667Y-73868333D02*
X78636667Y-73773095D01*
X78636667Y-73773095D02*
X78684286Y-73677857D01*
X78684286Y-73677857D02*
X78731905Y-73630238D01*
X78731905Y-73630238D02*
X78827143Y-73582619D01*
X78827143Y-73582619D02*
X79065238Y-73582619D01*
X79065238Y-73582619D02*
X79208095Y-73630238D01*
X79541429Y-73582619D02*
X79779524Y-74582619D01*
X79779524Y-74582619D02*
X79970000Y-73868333D01*
X79970000Y-73868333D02*
X80160476Y-74582619D01*
X80160476Y-74582619D02*
X80398572Y-73582619D01*
X81303333Y-74582619D02*
X80731905Y-74582619D01*
X81017619Y-74582619D02*
X81017619Y-73582619D01*
X81017619Y-73582619D02*
X80922381Y-73725476D01*
X80922381Y-73725476D02*
X80827143Y-73820714D01*
X80827143Y-73820714D02*
X80731905Y-73868333D01*
%TO.C,SW12*%
X135280476Y-121655000D02*
X135423333Y-121702619D01*
X135423333Y-121702619D02*
X135661428Y-121702619D01*
X135661428Y-121702619D02*
X135756666Y-121655000D01*
X135756666Y-121655000D02*
X135804285Y-121607380D01*
X135804285Y-121607380D02*
X135851904Y-121512142D01*
X135851904Y-121512142D02*
X135851904Y-121416904D01*
X135851904Y-121416904D02*
X135804285Y-121321666D01*
X135804285Y-121321666D02*
X135756666Y-121274047D01*
X135756666Y-121274047D02*
X135661428Y-121226428D01*
X135661428Y-121226428D02*
X135470952Y-121178809D01*
X135470952Y-121178809D02*
X135375714Y-121131190D01*
X135375714Y-121131190D02*
X135328095Y-121083571D01*
X135328095Y-121083571D02*
X135280476Y-120988333D01*
X135280476Y-120988333D02*
X135280476Y-120893095D01*
X135280476Y-120893095D02*
X135328095Y-120797857D01*
X135328095Y-120797857D02*
X135375714Y-120750238D01*
X135375714Y-120750238D02*
X135470952Y-120702619D01*
X135470952Y-120702619D02*
X135709047Y-120702619D01*
X135709047Y-120702619D02*
X135851904Y-120750238D01*
X136185238Y-120702619D02*
X136423333Y-121702619D01*
X136423333Y-121702619D02*
X136613809Y-120988333D01*
X136613809Y-120988333D02*
X136804285Y-121702619D01*
X136804285Y-121702619D02*
X137042381Y-120702619D01*
X137947142Y-121702619D02*
X137375714Y-121702619D01*
X137661428Y-121702619D02*
X137661428Y-120702619D01*
X137661428Y-120702619D02*
X137566190Y-120845476D01*
X137566190Y-120845476D02*
X137470952Y-120940714D01*
X137470952Y-120940714D02*
X137375714Y-120988333D01*
X138328095Y-120797857D02*
X138375714Y-120750238D01*
X138375714Y-120750238D02*
X138470952Y-120702619D01*
X138470952Y-120702619D02*
X138709047Y-120702619D01*
X138709047Y-120702619D02*
X138804285Y-120750238D01*
X138804285Y-120750238D02*
X138851904Y-120797857D01*
X138851904Y-120797857D02*
X138899523Y-120893095D01*
X138899523Y-120893095D02*
X138899523Y-120988333D01*
X138899523Y-120988333D02*
X138851904Y-121131190D01*
X138851904Y-121131190D02*
X138280476Y-121702619D01*
X138280476Y-121702619D02*
X138899523Y-121702619D01*
%TO.C,SW23*%
X116240476Y-178775000D02*
X116383333Y-178822619D01*
X116383333Y-178822619D02*
X116621428Y-178822619D01*
X116621428Y-178822619D02*
X116716666Y-178775000D01*
X116716666Y-178775000D02*
X116764285Y-178727380D01*
X116764285Y-178727380D02*
X116811904Y-178632142D01*
X116811904Y-178632142D02*
X116811904Y-178536904D01*
X116811904Y-178536904D02*
X116764285Y-178441666D01*
X116764285Y-178441666D02*
X116716666Y-178394047D01*
X116716666Y-178394047D02*
X116621428Y-178346428D01*
X116621428Y-178346428D02*
X116430952Y-178298809D01*
X116430952Y-178298809D02*
X116335714Y-178251190D01*
X116335714Y-178251190D02*
X116288095Y-178203571D01*
X116288095Y-178203571D02*
X116240476Y-178108333D01*
X116240476Y-178108333D02*
X116240476Y-178013095D01*
X116240476Y-178013095D02*
X116288095Y-177917857D01*
X116288095Y-177917857D02*
X116335714Y-177870238D01*
X116335714Y-177870238D02*
X116430952Y-177822619D01*
X116430952Y-177822619D02*
X116669047Y-177822619D01*
X116669047Y-177822619D02*
X116811904Y-177870238D01*
X117145238Y-177822619D02*
X117383333Y-178822619D01*
X117383333Y-178822619D02*
X117573809Y-178108333D01*
X117573809Y-178108333D02*
X117764285Y-178822619D01*
X117764285Y-178822619D02*
X118002381Y-177822619D01*
X118335714Y-177917857D02*
X118383333Y-177870238D01*
X118383333Y-177870238D02*
X118478571Y-177822619D01*
X118478571Y-177822619D02*
X118716666Y-177822619D01*
X118716666Y-177822619D02*
X118811904Y-177870238D01*
X118811904Y-177870238D02*
X118859523Y-177917857D01*
X118859523Y-177917857D02*
X118907142Y-178013095D01*
X118907142Y-178013095D02*
X118907142Y-178108333D01*
X118907142Y-178108333D02*
X118859523Y-178251190D01*
X118859523Y-178251190D02*
X118288095Y-178822619D01*
X118288095Y-178822619D02*
X118907142Y-178822619D01*
X119240476Y-177822619D02*
X119859523Y-177822619D01*
X119859523Y-177822619D02*
X119526190Y-178203571D01*
X119526190Y-178203571D02*
X119669047Y-178203571D01*
X119669047Y-178203571D02*
X119764285Y-178251190D01*
X119764285Y-178251190D02*
X119811904Y-178298809D01*
X119811904Y-178298809D02*
X119859523Y-178394047D01*
X119859523Y-178394047D02*
X119859523Y-178632142D01*
X119859523Y-178632142D02*
X119811904Y-178727380D01*
X119811904Y-178727380D02*
X119764285Y-178775000D01*
X119764285Y-178775000D02*
X119669047Y-178822619D01*
X119669047Y-178822619D02*
X119383333Y-178822619D01*
X119383333Y-178822619D02*
X119288095Y-178775000D01*
X119288095Y-178775000D02*
X119240476Y-178727380D01*
%TO.C,SW5*%
X78636667Y-102615000D02*
X78779524Y-102662619D01*
X78779524Y-102662619D02*
X79017619Y-102662619D01*
X79017619Y-102662619D02*
X79112857Y-102615000D01*
X79112857Y-102615000D02*
X79160476Y-102567380D01*
X79160476Y-102567380D02*
X79208095Y-102472142D01*
X79208095Y-102472142D02*
X79208095Y-102376904D01*
X79208095Y-102376904D02*
X79160476Y-102281666D01*
X79160476Y-102281666D02*
X79112857Y-102234047D01*
X79112857Y-102234047D02*
X79017619Y-102186428D01*
X79017619Y-102186428D02*
X78827143Y-102138809D01*
X78827143Y-102138809D02*
X78731905Y-102091190D01*
X78731905Y-102091190D02*
X78684286Y-102043571D01*
X78684286Y-102043571D02*
X78636667Y-101948333D01*
X78636667Y-101948333D02*
X78636667Y-101853095D01*
X78636667Y-101853095D02*
X78684286Y-101757857D01*
X78684286Y-101757857D02*
X78731905Y-101710238D01*
X78731905Y-101710238D02*
X78827143Y-101662619D01*
X78827143Y-101662619D02*
X79065238Y-101662619D01*
X79065238Y-101662619D02*
X79208095Y-101710238D01*
X79541429Y-101662619D02*
X79779524Y-102662619D01*
X79779524Y-102662619D02*
X79970000Y-101948333D01*
X79970000Y-101948333D02*
X80160476Y-102662619D01*
X80160476Y-102662619D02*
X80398572Y-101662619D01*
X81255714Y-101662619D02*
X80779524Y-101662619D01*
X80779524Y-101662619D02*
X80731905Y-102138809D01*
X80731905Y-102138809D02*
X80779524Y-102091190D01*
X80779524Y-102091190D02*
X80874762Y-102043571D01*
X80874762Y-102043571D02*
X81112857Y-102043571D01*
X81112857Y-102043571D02*
X81208095Y-102091190D01*
X81208095Y-102091190D02*
X81255714Y-102138809D01*
X81255714Y-102138809D02*
X81303333Y-102234047D01*
X81303333Y-102234047D02*
X81303333Y-102472142D01*
X81303333Y-102472142D02*
X81255714Y-102567380D01*
X81255714Y-102567380D02*
X81208095Y-102615000D01*
X81208095Y-102615000D02*
X81112857Y-102662619D01*
X81112857Y-102662619D02*
X80874762Y-102662619D01*
X80874762Y-102662619D02*
X80779524Y-102615000D01*
X80779524Y-102615000D02*
X80731905Y-102567380D01*
%TO.C,SW9*%
X78636667Y-121655000D02*
X78779524Y-121702619D01*
X78779524Y-121702619D02*
X79017619Y-121702619D01*
X79017619Y-121702619D02*
X79112857Y-121655000D01*
X79112857Y-121655000D02*
X79160476Y-121607380D01*
X79160476Y-121607380D02*
X79208095Y-121512142D01*
X79208095Y-121512142D02*
X79208095Y-121416904D01*
X79208095Y-121416904D02*
X79160476Y-121321666D01*
X79160476Y-121321666D02*
X79112857Y-121274047D01*
X79112857Y-121274047D02*
X79017619Y-121226428D01*
X79017619Y-121226428D02*
X78827143Y-121178809D01*
X78827143Y-121178809D02*
X78731905Y-121131190D01*
X78731905Y-121131190D02*
X78684286Y-121083571D01*
X78684286Y-121083571D02*
X78636667Y-120988333D01*
X78636667Y-120988333D02*
X78636667Y-120893095D01*
X78636667Y-120893095D02*
X78684286Y-120797857D01*
X78684286Y-120797857D02*
X78731905Y-120750238D01*
X78731905Y-120750238D02*
X78827143Y-120702619D01*
X78827143Y-120702619D02*
X79065238Y-120702619D01*
X79065238Y-120702619D02*
X79208095Y-120750238D01*
X79541429Y-120702619D02*
X79779524Y-121702619D01*
X79779524Y-121702619D02*
X79970000Y-120988333D01*
X79970000Y-120988333D02*
X80160476Y-121702619D01*
X80160476Y-121702619D02*
X80398572Y-120702619D01*
X80827143Y-121702619D02*
X81017619Y-121702619D01*
X81017619Y-121702619D02*
X81112857Y-121655000D01*
X81112857Y-121655000D02*
X81160476Y-121607380D01*
X81160476Y-121607380D02*
X81255714Y-121464523D01*
X81255714Y-121464523D02*
X81303333Y-121274047D01*
X81303333Y-121274047D02*
X81303333Y-120893095D01*
X81303333Y-120893095D02*
X81255714Y-120797857D01*
X81255714Y-120797857D02*
X81208095Y-120750238D01*
X81208095Y-120750238D02*
X81112857Y-120702619D01*
X81112857Y-120702619D02*
X80922381Y-120702619D01*
X80922381Y-120702619D02*
X80827143Y-120750238D01*
X80827143Y-120750238D02*
X80779524Y-120797857D01*
X80779524Y-120797857D02*
X80731905Y-120893095D01*
X80731905Y-120893095D02*
X80731905Y-121131190D01*
X80731905Y-121131190D02*
X80779524Y-121226428D01*
X80779524Y-121226428D02*
X80827143Y-121274047D01*
X80827143Y-121274047D02*
X80922381Y-121321666D01*
X80922381Y-121321666D02*
X81112857Y-121321666D01*
X81112857Y-121321666D02*
X81208095Y-121274047D01*
X81208095Y-121274047D02*
X81255714Y-121226428D01*
X81255714Y-121226428D02*
X81303333Y-121131190D01*
%TO.C,SW21*%
X78160476Y-178775000D02*
X78303333Y-178822619D01*
X78303333Y-178822619D02*
X78541428Y-178822619D01*
X78541428Y-178822619D02*
X78636666Y-178775000D01*
X78636666Y-178775000D02*
X78684285Y-178727380D01*
X78684285Y-178727380D02*
X78731904Y-178632142D01*
X78731904Y-178632142D02*
X78731904Y-178536904D01*
X78731904Y-178536904D02*
X78684285Y-178441666D01*
X78684285Y-178441666D02*
X78636666Y-178394047D01*
X78636666Y-178394047D02*
X78541428Y-178346428D01*
X78541428Y-178346428D02*
X78350952Y-178298809D01*
X78350952Y-178298809D02*
X78255714Y-178251190D01*
X78255714Y-178251190D02*
X78208095Y-178203571D01*
X78208095Y-178203571D02*
X78160476Y-178108333D01*
X78160476Y-178108333D02*
X78160476Y-178013095D01*
X78160476Y-178013095D02*
X78208095Y-177917857D01*
X78208095Y-177917857D02*
X78255714Y-177870238D01*
X78255714Y-177870238D02*
X78350952Y-177822619D01*
X78350952Y-177822619D02*
X78589047Y-177822619D01*
X78589047Y-177822619D02*
X78731904Y-177870238D01*
X79065238Y-177822619D02*
X79303333Y-178822619D01*
X79303333Y-178822619D02*
X79493809Y-178108333D01*
X79493809Y-178108333D02*
X79684285Y-178822619D01*
X79684285Y-178822619D02*
X79922381Y-177822619D01*
X80255714Y-177917857D02*
X80303333Y-177870238D01*
X80303333Y-177870238D02*
X80398571Y-177822619D01*
X80398571Y-177822619D02*
X80636666Y-177822619D01*
X80636666Y-177822619D02*
X80731904Y-177870238D01*
X80731904Y-177870238D02*
X80779523Y-177917857D01*
X80779523Y-177917857D02*
X80827142Y-178013095D01*
X80827142Y-178013095D02*
X80827142Y-178108333D01*
X80827142Y-178108333D02*
X80779523Y-178251190D01*
X80779523Y-178251190D02*
X80208095Y-178822619D01*
X80208095Y-178822619D02*
X80827142Y-178822619D01*
X81779523Y-178822619D02*
X81208095Y-178822619D01*
X81493809Y-178822619D02*
X81493809Y-177822619D01*
X81493809Y-177822619D02*
X81398571Y-177965476D01*
X81398571Y-177965476D02*
X81303333Y-178060714D01*
X81303333Y-178060714D02*
X81208095Y-178108333D01*
D11*
%TO.C,SW13*%
X72985000Y-128835000D02*
X86955000Y-128835000D01*
X72985000Y-142805000D02*
X72985000Y-128835000D01*
X86955000Y-128835000D02*
X86955000Y-142805000D01*
X86955000Y-142805000D02*
X72985000Y-142805000D01*
%TO.C,SW8*%
X130105000Y-90755000D02*
X144075000Y-90755000D01*
X130105000Y-104725000D02*
X130105000Y-90755000D01*
X144075000Y-90755000D02*
X144075000Y-104725000D01*
X144075000Y-104725000D02*
X130105000Y-104725000D01*
%TO.C,SW17*%
X72985000Y-147875000D02*
X86955000Y-147875000D01*
X72985000Y-161845000D02*
X72985000Y-147875000D01*
X86955000Y-147875000D02*
X86955000Y-161845000D01*
X86955000Y-161845000D02*
X72985000Y-161845000D01*
%TO.C,SW2*%
X92025000Y-62675000D02*
X105995000Y-62675000D01*
X92025000Y-76645000D02*
X92025000Y-62675000D01*
X105995000Y-62675000D02*
X105995000Y-76645000D01*
X105995000Y-76645000D02*
X92025000Y-76645000D01*
%TO.C,SW22*%
X92025000Y-166915000D02*
X105995000Y-166915000D01*
X92025000Y-180885000D02*
X92025000Y-166915000D01*
X105995000Y-166915000D02*
X105995000Y-180885000D01*
X105995000Y-180885000D02*
X92025000Y-180885000D01*
%TO.C,SW4*%
X130105000Y-62675000D02*
X144075000Y-62675000D01*
X130105000Y-76645000D02*
X130105000Y-62675000D01*
X144075000Y-62675000D02*
X144075000Y-76645000D01*
X144075000Y-76645000D02*
X130105000Y-76645000D01*
%TO.C,SW3*%
X111065000Y-62675000D02*
X125035000Y-62675000D01*
X111065000Y-76645000D02*
X111065000Y-62675000D01*
X125035000Y-62675000D02*
X125035000Y-76645000D01*
X125035000Y-76645000D02*
X111065000Y-76645000D01*
%TO.C,SW10*%
X92025000Y-109795000D02*
X105995000Y-109795000D01*
X92025000Y-123765000D02*
X92025000Y-109795000D01*
X105995000Y-109795000D02*
X105995000Y-123765000D01*
X105995000Y-123765000D02*
X92025000Y-123765000D01*
%TO.C,SW16*%
X130105000Y-128835000D02*
X144075000Y-128835000D01*
X130105000Y-142805000D02*
X130105000Y-128835000D01*
X144075000Y-128835000D02*
X144075000Y-142805000D01*
X144075000Y-142805000D02*
X130105000Y-142805000D01*
%TO.C,SW6*%
X92025000Y-90755000D02*
X105995000Y-90755000D01*
X92025000Y-104725000D02*
X92025000Y-90755000D01*
X105995000Y-90755000D02*
X105995000Y-104725000D01*
X105995000Y-104725000D02*
X92025000Y-104725000D01*
%TO.C,SW19*%
X111065000Y-147875000D02*
X125035000Y-147875000D01*
X111065000Y-161845000D02*
X111065000Y-147875000D01*
X125035000Y-147875000D02*
X125035000Y-161845000D01*
X125035000Y-161845000D02*
X111065000Y-161845000D01*
%TO.C,SW15*%
X111065000Y-128835000D02*
X125035000Y-128835000D01*
X111065000Y-142805000D02*
X111065000Y-128835000D01*
X125035000Y-128835000D02*
X125035000Y-142805000D01*
X125035000Y-142805000D02*
X111065000Y-142805000D01*
%TO.C,SW7*%
X111065000Y-90755000D02*
X125035000Y-90755000D01*
X111065000Y-104725000D02*
X111065000Y-90755000D01*
X125035000Y-90755000D02*
X125035000Y-104725000D01*
X125035000Y-104725000D02*
X111065000Y-104725000D01*
%TO.C,SW18*%
X92025000Y-147875000D02*
X105995000Y-147875000D01*
X92025000Y-161845000D02*
X92025000Y-147875000D01*
X105995000Y-147875000D02*
X105995000Y-161845000D01*
X105995000Y-161845000D02*
X92025000Y-161845000D01*
%TO.C,SW14*%
X92025000Y-128835000D02*
X105995000Y-128835000D01*
X92025000Y-142805000D02*
X92025000Y-128835000D01*
X105995000Y-128835000D02*
X105995000Y-142805000D01*
X105995000Y-142805000D02*
X92025000Y-142805000D01*
%TO.C,SW20*%
X130105000Y-171365000D02*
X130105000Y-157395000D01*
X144075000Y-171365000D02*
X130105000Y-171365000D01*
X130105000Y-157395000D02*
X144075000Y-157395000D01*
X144075000Y-157395000D02*
X144075000Y-171365000D01*
%TO.C,SW11*%
X111065000Y-109795000D02*
X125035000Y-109795000D01*
X111065000Y-123765000D02*
X111065000Y-109795000D01*
X125035000Y-109795000D02*
X125035000Y-123765000D01*
X125035000Y-123765000D02*
X111065000Y-123765000D01*
%TO.C,SW1*%
X72985000Y-62675000D02*
X86955000Y-62675000D01*
X72985000Y-76645000D02*
X72985000Y-62675000D01*
X86955000Y-62675000D02*
X86955000Y-76645000D01*
X86955000Y-76645000D02*
X72985000Y-76645000D01*
%TO.C,SW12*%
X130105000Y-109795000D02*
X144075000Y-109795000D01*
X130105000Y-123765000D02*
X130105000Y-109795000D01*
X144075000Y-109795000D02*
X144075000Y-123765000D01*
X144075000Y-123765000D02*
X130105000Y-123765000D01*
%TO.C,SW23*%
X111065000Y-166915000D02*
X125035000Y-166915000D01*
X111065000Y-180885000D02*
X111065000Y-166915000D01*
X125035000Y-166915000D02*
X125035000Y-180885000D01*
X125035000Y-180885000D02*
X111065000Y-180885000D01*
%TO.C,SW5*%
X72985000Y-90755000D02*
X86955000Y-90755000D01*
X72985000Y-104725000D02*
X72985000Y-90755000D01*
X86955000Y-90755000D02*
X86955000Y-104725000D01*
X86955000Y-104725000D02*
X72985000Y-104725000D01*
%TO.C,SW9*%
X72985000Y-109795000D02*
X86955000Y-109795000D01*
X72985000Y-123765000D02*
X72985000Y-109795000D01*
X86955000Y-109795000D02*
X86955000Y-123765000D01*
X86955000Y-123765000D02*
X72985000Y-123765000D01*
%TO.C,SW21*%
X72985000Y-166915000D02*
X86955000Y-166915000D01*
X72985000Y-180885000D02*
X72985000Y-166915000D01*
X86955000Y-166915000D02*
X86955000Y-180885000D01*
X86955000Y-180885000D02*
X72985000Y-180885000D01*
%TD*%
M02*
