%TF.GenerationSoftware,KiCad,Pcbnew,7.0.2*%
%TF.CreationDate,2023-09-28T02:32:06+09:00*%
%TF.ProjectId,HT-Keys-TK_PCB,48542d4b-6579-4732-9d54-4b5f5043422e,rev?*%
%TF.SameCoordinates,Original*%
%TF.FileFunction,Copper,L2,Bot*%
%TF.FilePolarity,Positive*%
%FSLAX46Y46*%
G04 Gerber Fmt 4.6, Leading zero omitted, Abs format (unit mm)*
G04 Created by KiCad (PCBNEW 7.0.2) date 2023-09-28 02:32:06*
%MOMM*%
%LPD*%
G01*
G04 APERTURE LIST*
%TA.AperFunction,ComponentPad*%
%ADD10C,2.200000*%
%TD*%
%TA.AperFunction,ComponentPad*%
%ADD11R,1.800000X1.800000*%
%TD*%
%TA.AperFunction,ComponentPad*%
%ADD12O,1.800000X1.800000*%
%TD*%
%TA.AperFunction,ComponentPad*%
%ADD13R,1.700000X1.700000*%
%TD*%
%TA.AperFunction,ComponentPad*%
%ADD14O,1.700000X1.700000*%
%TD*%
%TA.AperFunction,Conductor*%
%ADD15C,0.250000*%
%TD*%
G04 APERTURE END LIST*
D10*
%TO.P,SW13,1,1*%
%TO.N,Read0*%
X82510000Y-130740000D03*
%TO.P,SW13,2,2*%
%TO.N,Net-(D13-A)*%
X76160000Y-133280000D03*
%TD*%
%TO.P,SW8,1,1*%
%TO.N,Read3*%
X139630000Y-92660000D03*
%TO.P,SW8,2,2*%
%TO.N,Net-(D8-A)*%
X133280000Y-95200000D03*
%TD*%
%TO.P,SW17,1,1*%
%TO.N,Read0*%
X82510000Y-149780000D03*
%TO.P,SW17,2,2*%
%TO.N,Net-(D17-A)*%
X76160000Y-152320000D03*
%TD*%
%TO.P,SW2,1,1*%
%TO.N,Read1*%
X101550000Y-64580000D03*
%TO.P,SW2,2,2*%
%TO.N,Net-(D2-A)*%
X95200000Y-67120000D03*
%TD*%
%TO.P,SW22,1,1*%
%TO.N,Read1*%
X101550000Y-168820000D03*
%TO.P,SW22,2,2*%
%TO.N,Net-(D22-A)*%
X95200000Y-171360000D03*
%TD*%
%TO.P,SW4,1,1*%
%TO.N,Read3*%
X139630000Y-64580000D03*
%TO.P,SW4,2,2*%
%TO.N,Net-(D4-A)*%
X133280000Y-67120000D03*
%TD*%
%TO.P,SW3,1,1*%
%TO.N,Read2*%
X120590000Y-64580000D03*
%TO.P,SW3,2,2*%
%TO.N,Net-(D3-A)*%
X114240000Y-67120000D03*
%TD*%
%TO.P,SW10,1,1*%
%TO.N,Read1*%
X101550000Y-111700000D03*
%TO.P,SW10,2,2*%
%TO.N,Net-(D10-A)*%
X95200000Y-114240000D03*
%TD*%
%TO.P,SW16,1,1*%
%TO.N,Read3*%
X139630000Y-130740000D03*
%TO.P,SW16,2,2*%
%TO.N,Net-(D16-A)*%
X133280000Y-133280000D03*
%TD*%
%TO.P,SW6,1,1*%
%TO.N,Read1*%
X101550000Y-92660000D03*
%TO.P,SW6,2,2*%
%TO.N,Net-(D6-A)*%
X95200000Y-95200000D03*
%TD*%
%TO.P,SW19,1,1*%
%TO.N,Read2*%
X120590000Y-149780000D03*
%TO.P,SW19,2,2*%
%TO.N,Net-(D19-A)*%
X114240000Y-152320000D03*
%TD*%
%TO.P,SW15,1,1*%
%TO.N,Read2*%
X120590000Y-130740000D03*
%TO.P,SW15,2,2*%
%TO.N,Net-(D15-A)*%
X114240000Y-133280000D03*
%TD*%
%TO.P,SW7,1,1*%
%TO.N,Read2*%
X120590000Y-92660000D03*
%TO.P,SW7,2,2*%
%TO.N,Net-(D7-A)*%
X114240000Y-95200000D03*
%TD*%
%TO.P,SW18,1,1*%
%TO.N,Read1*%
X101550000Y-149780000D03*
%TO.P,SW18,2,2*%
%TO.N,Net-(D18-A)*%
X95200000Y-152320000D03*
%TD*%
%TO.P,SW14,1,1*%
%TO.N,Read1*%
X101550000Y-130740000D03*
%TO.P,SW14,2,2*%
%TO.N,Net-(D14-A)*%
X95200000Y-133280000D03*
%TD*%
%TO.P,SW20,1,1*%
%TO.N,Read3*%
X132010000Y-161840000D03*
%TO.P,SW20,2,2*%
%TO.N,Net-(D20-A)*%
X134550000Y-168190000D03*
%TD*%
%TO.P,SW11,1,1*%
%TO.N,Read2*%
X120590000Y-111700000D03*
%TO.P,SW11,2,2*%
%TO.N,Net-(D11-A)*%
X114240000Y-114240000D03*
%TD*%
%TO.P,SW1,1,1*%
%TO.N,Read0*%
X82510000Y-64580000D03*
%TO.P,SW1,2,2*%
%TO.N,Net-(D1-A)*%
X76160000Y-67120000D03*
%TD*%
%TO.P,SW12,1,1*%
%TO.N,Read3*%
X139630000Y-111700000D03*
%TO.P,SW12,2,2*%
%TO.N,Net-(D12-A)*%
X133280000Y-114240000D03*
%TD*%
%TO.P,SW23,1,1*%
%TO.N,Read2*%
X120590000Y-168820000D03*
%TO.P,SW23,2,2*%
%TO.N,Net-(D23-A)*%
X114240000Y-171360000D03*
%TD*%
%TO.P,SW5,1,1*%
%TO.N,Read0*%
X82510000Y-92660000D03*
%TO.P,SW5,2,2*%
%TO.N,Net-(D5-A)*%
X76160000Y-95200000D03*
%TD*%
%TO.P,SW9,1,1*%
%TO.N,Read0*%
X82510000Y-111700000D03*
%TO.P,SW9,2,2*%
%TO.N,Net-(D9-A)*%
X76160000Y-114240000D03*
%TD*%
%TO.P,SW21,1,1*%
%TO.N,Read0*%
X82510000Y-168820000D03*
%TO.P,SW21,2,2*%
%TO.N,Net-(D21-A)*%
X76160000Y-171360000D03*
%TD*%
D11*
%TO.P,D17,1,K*%
%TO.N,Scan4*%
X72000000Y-159940000D03*
D12*
%TO.P,D17,2,A*%
%TO.N,Net-(D17-A)*%
X72000000Y-152320000D03*
%TD*%
D13*
%TO.P,J2,1,Pin_1*%
%TO.N,+3.3V*%
X144780000Y-60340000D03*
D14*
%TO.P,J2,2,Pin_2*%
%TO.N,GND*%
X142240000Y-60340000D03*
%TO.P,J2,3,Pin_3*%
%TO.N,Read3*%
X139700000Y-60340000D03*
%TO.P,J2,4,Pin_4*%
%TO.N,unconnected-(J2-Pin_4-Pad4)*%
X137160000Y-60340000D03*
%TO.P,J2,5,Pin_5*%
%TO.N,unconnected-(J2-Pin_5-Pad5)*%
X134620000Y-60340000D03*
%TO.P,J2,6,Pin_6*%
%TO.N,unconnected-(J2-Pin_6-Pad6)*%
X132080000Y-60340000D03*
%TO.P,J2,7,Pin_7*%
%TO.N,unconnected-(J2-Pin_7-Pad7)*%
X129540000Y-60340000D03*
%TO.P,J2,8,Pin_8*%
%TO.N,unconnected-(J2-Pin_8-Pad8)*%
X127000000Y-60340000D03*
%TO.P,J2,9,Pin_9*%
%TO.N,unconnected-(J2-Pin_9-Pad9)*%
X124460000Y-60340000D03*
%TO.P,J2,10,Pin_10*%
%TO.N,unconnected-(J2-Pin_10-Pad10)*%
X121920000Y-60340000D03*
%TO.P,J2,11,Pin_11*%
%TO.N,Read2*%
X119380000Y-60340000D03*
%TO.P,J2,12,Pin_12*%
%TO.N,unconnected-(J2-Pin_12-Pad12)*%
X116840000Y-60340000D03*
%TO.P,J2,13,Pin_13*%
%TO.N,unconnected-(J2-Pin_13-Pad13)*%
X114300000Y-60340000D03*
%TO.P,J2,14,Pin_14*%
%TO.N,unconnected-(J2-Pin_14-Pad14)*%
X111760000Y-60340000D03*
%TO.P,J2,15,Pin_15*%
%TO.N,Read1*%
X109220000Y-60340000D03*
%TO.P,J2,16,Pin_16*%
%TO.N,Read0*%
X106680000Y-60340000D03*
%TO.P,J2,17,Pin_17*%
%TO.N,GND*%
X104140000Y-60340000D03*
%TD*%
D11*
%TO.P,D21,1,K*%
%TO.N,Scan5*%
X72000000Y-178980000D03*
D12*
%TO.P,D21,2,A*%
%TO.N,Net-(D21-A)*%
X72000000Y-171360000D03*
%TD*%
D11*
%TO.P,D18,1,K*%
%TO.N,Scan4*%
X91160000Y-159940000D03*
D12*
%TO.P,D18,2,A*%
%TO.N,Net-(D18-A)*%
X91160000Y-152320000D03*
%TD*%
D11*
%TO.P,D1,1,K*%
%TO.N,Scan0*%
X72000000Y-73740000D03*
D12*
%TO.P,D1,2,A*%
%TO.N,Net-(D1-A)*%
X72000000Y-66120000D03*
%TD*%
D11*
%TO.P,D15,1,K*%
%TO.N,Scan3*%
X110200000Y-140900000D03*
D12*
%TO.P,D15,2,A*%
%TO.N,Net-(D15-A)*%
X110200000Y-133280000D03*
%TD*%
D11*
%TO.P,D2,1,K*%
%TO.N,Scan0*%
X91160000Y-73740000D03*
D12*
%TO.P,D2,2,A*%
%TO.N,Net-(D2-A)*%
X91160000Y-66120000D03*
%TD*%
D11*
%TO.P,D13,1,K*%
%TO.N,Scan3*%
X72000000Y-140900000D03*
D12*
%TO.P,D13,2,A*%
%TO.N,Net-(D13-A)*%
X72000000Y-133280000D03*
%TD*%
D11*
%TO.P,D8,1,K*%
%TO.N,Scan1*%
X129240000Y-102820000D03*
D12*
%TO.P,D8,2,A*%
%TO.N,Net-(D8-A)*%
X129240000Y-95200000D03*
%TD*%
D11*
%TO.P,D5,1,K*%
%TO.N,Scan1*%
X72000000Y-102820000D03*
D12*
%TO.P,D5,2,A*%
%TO.N,Net-(D5-A)*%
X72000000Y-95200000D03*
%TD*%
D11*
%TO.P,D7,1,K*%
%TO.N,Scan1*%
X110200000Y-102820000D03*
D12*
%TO.P,D7,2,A*%
%TO.N,Net-(D7-A)*%
X110200000Y-95200000D03*
%TD*%
D11*
%TO.P,D12,1,K*%
%TO.N,Scan2*%
X129240000Y-121860000D03*
D12*
%TO.P,D12,2,A*%
%TO.N,Net-(D12-A)*%
X129240000Y-114240000D03*
%TD*%
D11*
%TO.P,D11,1,K*%
%TO.N,Scan2*%
X110200000Y-121860000D03*
D12*
%TO.P,D11,2,A*%
%TO.N,Net-(D11-A)*%
X110200000Y-114240000D03*
%TD*%
D11*
%TO.P,D22,1,K*%
%TO.N,Scan5*%
X91160000Y-178980000D03*
D12*
%TO.P,D22,2,A*%
%TO.N,Net-(D22-A)*%
X91160000Y-171360000D03*
%TD*%
D11*
%TO.P,D16,1,K*%
%TO.N,Scan3*%
X129240000Y-140900000D03*
D12*
%TO.P,D16,2,A*%
%TO.N,Net-(D16-A)*%
X129240000Y-133280000D03*
%TD*%
D11*
%TO.P,D9,1,K*%
%TO.N,Scan2*%
X72000000Y-121860000D03*
D12*
%TO.P,D9,2,A*%
%TO.N,Net-(D9-A)*%
X72000000Y-114240000D03*
%TD*%
D11*
%TO.P,D6,1,K*%
%TO.N,Scan1*%
X91160000Y-102820000D03*
D12*
%TO.P,D6,2,A*%
%TO.N,Net-(D6-A)*%
X91160000Y-95200000D03*
%TD*%
D11*
%TO.P,D23,1,K*%
%TO.N,Scan5*%
X110200000Y-178980000D03*
D12*
%TO.P,D23,2,A*%
%TO.N,Net-(D23-A)*%
X110200000Y-171360000D03*
%TD*%
D13*
%TO.P,J1,1,Pin_1*%
%TO.N,unconnected-(J1-Pin_1-Pad1)*%
X144780000Y-78580000D03*
D14*
%TO.P,J1,2,Pin_2*%
%TO.N,unconnected-(J1-Pin_2-Pad2)*%
X142240000Y-78580000D03*
%TO.P,J1,3,Pin_3*%
%TO.N,unconnected-(J1-Pin_3-Pad3)*%
X139700000Y-78580000D03*
%TO.P,J1,4,Pin_4*%
%TO.N,unconnected-(J1-Pin_4-Pad4)*%
X137160000Y-78580000D03*
%TO.P,J1,5,Pin_5*%
%TO.N,unconnected-(J1-Pin_5-Pad5)*%
X134620000Y-78580000D03*
%TO.P,J1,6,Pin_6*%
%TO.N,unconnected-(J1-Pin_6-Pad6)*%
X132080000Y-78580000D03*
%TO.P,J1,7,Pin_7*%
%TO.N,Scan0*%
X129540000Y-78580000D03*
%TO.P,J1,8,Pin_8*%
%TO.N,Scan1*%
X127000000Y-78580000D03*
%TO.P,J1,9,Pin_9*%
%TO.N,Scan2*%
X124460000Y-78580000D03*
%TO.P,J1,10,Pin_10*%
%TO.N,Scan3*%
X121920000Y-78580000D03*
%TO.P,J1,11,Pin_11*%
%TO.N,unconnected-(J1-Pin_11-Pad11)*%
X119380000Y-78580000D03*
%TO.P,J1,12,Pin_12*%
%TO.N,unconnected-(J1-Pin_12-Pad12)*%
X116840000Y-78580000D03*
%TO.P,J1,13,Pin_13*%
%TO.N,unconnected-(J1-Pin_13-Pad13)*%
X114300000Y-78580000D03*
%TO.P,J1,14,Pin_14*%
%TO.N,unconnected-(J1-Pin_14-Pad14)*%
X111760000Y-78580000D03*
%TO.P,J1,15,Pin_15*%
%TO.N,Scan4*%
X109220000Y-78580000D03*
%TO.P,J1,16,Pin_16*%
%TO.N,Scan5*%
X106680000Y-78580000D03*
%TO.P,J1,17,Pin_17*%
%TO.N,unconnected-(J1-Pin_17-Pad17)*%
X104140000Y-78580000D03*
%TD*%
D11*
%TO.P,D10,1,K*%
%TO.N,Scan2*%
X91160000Y-121860000D03*
D12*
%TO.P,D10,2,A*%
%TO.N,Net-(D10-A)*%
X91160000Y-114240000D03*
%TD*%
D11*
%TO.P,D14,1,K*%
%TO.N,Scan3*%
X91160000Y-140900000D03*
D12*
%TO.P,D14,2,A*%
%TO.N,Net-(D14-A)*%
X91160000Y-133280000D03*
%TD*%
D11*
%TO.P,D19,1,K*%
%TO.N,Scan4*%
X110200000Y-159940000D03*
D12*
%TO.P,D19,2,A*%
%TO.N,Net-(D19-A)*%
X110200000Y-152320000D03*
%TD*%
D11*
%TO.P,D20,1,K*%
%TO.N,Scan4*%
X129480000Y-160000000D03*
D12*
%TO.P,D20,2,A*%
%TO.N,Net-(D20-A)*%
X129480000Y-167620000D03*
%TD*%
D11*
%TO.P,D3,1,K*%
%TO.N,Scan0*%
X110200000Y-73740000D03*
D12*
%TO.P,D3,2,A*%
%TO.N,Net-(D3-A)*%
X110200000Y-66120000D03*
%TD*%
D11*
%TO.P,D4,1,K*%
%TO.N,Scan0*%
X129240000Y-73740000D03*
D12*
%TO.P,D4,2,A*%
%TO.N,Net-(D4-A)*%
X129240000Y-66120000D03*
%TD*%
D15*
%TO.N,Scan0*%
X129540000Y-74040000D02*
X129240000Y-73740000D01*
X129540000Y-78580000D02*
X129540000Y-74040000D01*
%TO.N,Net-(D1-A)*%
X76160000Y-67120000D02*
X73000000Y-67120000D01*
X73000000Y-67120000D02*
X72000000Y-66120000D01*
%TO.N,Net-(D2-A)*%
X92160000Y-67120000D02*
X91160000Y-66120000D01*
X95200000Y-67120000D02*
X92160000Y-67120000D01*
%TO.N,Net-(D3-A)*%
X114240000Y-67120000D02*
X111200000Y-67120000D01*
X111200000Y-67120000D02*
X110200000Y-66120000D01*
%TO.N,Net-(D4-A)*%
X130240000Y-67120000D02*
X129240000Y-66120000D01*
X133280000Y-67120000D02*
X130240000Y-67120000D01*
%TO.N,Scan1*%
X127000000Y-78580000D02*
X127000000Y-100580000D01*
X127000000Y-100580000D02*
X129240000Y-102820000D01*
%TO.N,Net-(D5-A)*%
X76160000Y-95200000D02*
X72000000Y-95200000D01*
%TO.N,Net-(D6-A)*%
X95200000Y-95200000D02*
X91160000Y-95200000D01*
%TO.N,Net-(D7-A)*%
X114240000Y-95200000D02*
X110200000Y-95200000D01*
%TO.N,Net-(D8-A)*%
X133280000Y-95200000D02*
X129240000Y-95200000D01*
%TO.N,Scan2*%
X124460000Y-78580000D02*
X126000000Y-80120000D01*
X126000000Y-80120000D02*
X126000000Y-118620000D01*
X126000000Y-118620000D02*
X129240000Y-121860000D01*
%TO.N,Net-(D9-A)*%
X76160000Y-114240000D02*
X72000000Y-114240000D01*
%TO.N,Scan3*%
X125000000Y-136660000D02*
X129240000Y-140900000D01*
X121920000Y-78580000D02*
X125000000Y-81660000D01*
X125000000Y-81660000D02*
X125000000Y-136660000D01*
%TO.N,Net-(D10-A)*%
X95200000Y-114240000D02*
X91160000Y-114240000D01*
%TO.N,Net-(D11-A)*%
X114240000Y-114240000D02*
X110200000Y-114240000D01*
%TO.N,Net-(D12-A)*%
X133280000Y-114240000D02*
X129240000Y-114240000D01*
%TO.N,Net-(D13-A)*%
X76160000Y-133280000D02*
X72000000Y-133280000D01*
%TO.N,Net-(D14-A)*%
X95200000Y-133280000D02*
X91160000Y-133280000D01*
%TO.N,Net-(D15-A)*%
X114240000Y-133280000D02*
X110200000Y-133280000D01*
%TO.N,Net-(D16-A)*%
X133280000Y-133280000D02*
X129240000Y-133280000D01*
%TO.N,Scan4*%
X108000000Y-79800000D02*
X108000000Y-157740000D01*
X108000000Y-157740000D02*
X110200000Y-159940000D01*
X109220000Y-78580000D02*
X108000000Y-79800000D01*
%TO.N,Net-(D17-A)*%
X76160000Y-152320000D02*
X72000000Y-152320000D01*
%TO.N,Scan5*%
X106680000Y-78580000D02*
X106680000Y-175460000D01*
X106680000Y-175460000D02*
X110200000Y-178980000D01*
%TO.N,Net-(D18-A)*%
X95200000Y-152320000D02*
X91160000Y-152320000D01*
%TO.N,Net-(D19-A)*%
X114240000Y-152320000D02*
X110200000Y-152320000D01*
%TO.N,Net-(D20-A)*%
X130050000Y-168190000D02*
X129480000Y-167620000D01*
X134550000Y-168190000D02*
X130050000Y-168190000D01*
%TO.N,Net-(D21-A)*%
X76160000Y-171360000D02*
X72000000Y-171360000D01*
%TO.N,Net-(D22-A)*%
X95200000Y-171360000D02*
X91160000Y-171360000D01*
%TO.N,Net-(D23-A)*%
X114240000Y-171360000D02*
X110200000Y-171360000D01*
%TO.N,Read0*%
X82510000Y-149780000D02*
X82510000Y-130740000D01*
X82510000Y-111700000D02*
X82510000Y-92660000D01*
X82510000Y-111700000D02*
X82510000Y-130740000D01*
X105020000Y-62000000D02*
X85090000Y-62000000D01*
X82510000Y-149780000D02*
X82510000Y-168820000D01*
X106680000Y-60340000D02*
X105020000Y-62000000D01*
X85000000Y-62090000D02*
X82510000Y-64580000D01*
X85090000Y-62000000D02*
X85000000Y-62090000D01*
X82510000Y-64580000D02*
X82510000Y-92660000D01*
%TO.N,Read1*%
X101550000Y-149780000D02*
X101550000Y-130740000D01*
X109220000Y-60340000D02*
X106560000Y-63000000D01*
X101550000Y-111700000D02*
X101550000Y-130740000D01*
X101550000Y-64580000D02*
X101550000Y-92660000D01*
X103130000Y-63000000D02*
X101550000Y-64580000D01*
X106560000Y-63000000D02*
X103130000Y-63000000D01*
X101550000Y-149780000D02*
X101550000Y-168820000D01*
X101550000Y-111700000D02*
X101550000Y-92660000D01*
%TO.N,Read2*%
X120590000Y-64580000D02*
X120590000Y-92660000D01*
X120590000Y-149780000D02*
X120590000Y-130740000D01*
X120590000Y-149780000D02*
X120590000Y-168820000D01*
X119380000Y-63370000D02*
X120590000Y-64580000D01*
X120590000Y-111700000D02*
X120590000Y-130740000D01*
X119380000Y-60340000D02*
X119380000Y-63370000D01*
X120590000Y-111700000D02*
X120590000Y-92660000D01*
%TO.N,Read3*%
X140875000Y-65825000D02*
X140875000Y-91415000D01*
X140875000Y-91415000D02*
X139630000Y-92660000D01*
X139700000Y-64510000D02*
X139630000Y-64580000D01*
X132010000Y-161840000D02*
X139630000Y-154220000D01*
X139630000Y-111700000D02*
X139630000Y-130740000D01*
X139630000Y-154220000D02*
X139630000Y-130740000D01*
X139630000Y-111700000D02*
X139630000Y-92660000D01*
X139700000Y-60340000D02*
X139700000Y-64510000D01*
X139630000Y-64580000D02*
X140875000Y-65825000D01*
%TD*%
M02*
